<svg id="Layer_1" data-name="Layer 1" xmlns="http://www.w3.org/2000/svg" viewBox="0 0 192.76 192.76"><defs><style>.cls-1{fill:#52883c;}.cls-1,.cls-2{fill-rule:evenodd;}.cls-2{fill:#fff;}</style></defs><title>Animal_Kingdom</title><polygon class="cls-1" points="0 0 192.76 0 192.76 192.76 0 192.76 0 0 0 0"/><path class="cls-2" d="M384.81,414.2a2.79,2.79,0,0,0,2.77-2.82,2.77,2.77,0,1,0-5.54,0,2.79,2.79,0,0,0,2.77,2.82Z" transform="translate(-209 -300)"/><path class="cls-2" d="M254.13,383.57c1-1.08,3.24-3.24,6.34-3.15s4.6.52,7.28-.65l3.95,4.32a15.51,15.51,0,0,1,.89-3.43c1.17-.42,5.54-1,7.8-.24a2.54,2.54,0,0,0,1.83-.28c-.89-.7-4-3.85-1.36-7.37-3.48-.43-5.5-6.86,1.17-8.79,5.59-1.59,12.64,2.73,13.11,3.15,1.12-1.17,5.12-3.15,8-1.08a5.24,5.24,0,0,1,1.93,3.76,23.61,23.61,0,0,1,2.77.09c.89-.61,3.57-.61,4.37.9,1.08-.52,4.41-.24,4.88,0a3.48,3.48,0,0,1,2.49-.24c.61-1.36,4.93-2.87,7,.24,2-.24,7.7.18,6.11,5.77.51,1.13-.1,3.29-.66,4.18l3.33,1.46,2-2.68c2.06.8,9.35,1.65,15.5,1,.47,0,3.24-1.18,6,3.66a1.33,1.33,0,0,1-.28,1.08,20.15,20.15,0,0,1,1.18,4.47,20.87,20.87,0,0,1,3,6.9,27.62,27.62,0,0,0,0-6.25,23.41,23.41,0,0,1,.8-9.25c1.59-.8,6.1-.75,7.7-.61a13,13,0,0,0,3.33-.19c1,.09,4,.19,4.37.19l-.7,16.67,7.47-.18a19.72,19.72,0,0,1,.8,9.16s-.43,3.05-.43,3.05l-3.29,4.13,1.27,6.91a3.77,3.77,0,0,1,3.15,4.46c-.52,2.54-2.49,3.76-5,3.62s-7.37-.19-8.5-.1a4.56,4.56,0,0,1-3.43-1.17,4.48,4.48,0,0,1-6.2.42c-1.41,1.18-4.27.9-5.64.75a13.87,13.87,0,0,0-3.47.1c-.89.05-3.05-.1-3.9-2-1.5,1.4-13.9,5.35-20.15-2.82-2,2.82-7,5-12.4,4.84-2.68-.05-7-.33-8.27-.15s-3.1.15-4.09-1.45a5,5,0,0,0-2.35.7c-3.24,1.55-10.94,3.43-17.24-1.88-1.87,1.55-8.12,5.59-11.18.57-1.17,2.16-3.8,2.39-5.49,2.16a18.47,18.47,0,0,0-4.65,0,7.76,7.76,0,0,1-3-.28c-.28.42-3.57.28-5.4.18s-3.39.15-4.75.15a3.17,3.17,0,0,1-2.58-1c-1.46.84-5.87,2.54-9.26-.24-1.36,1.32-2.86,1.41-4.93,1.18a19.09,19.09,0,0,0-5.21,0c-1.27.14-4.09.7-5.45-2.73-.85-2,1.6-4.55,2.3-4.83l-.09-6.44c-1.79-.38-3.67-3.34-2.4-5.31l-1.27-.33s1.6-4.93,2.26-5.54a9.07,9.07,0,0,0,1.17-2.58c.24-.61,4-8,4-8a32.07,32.07,0,0,1-3.85-2.06s.79-2,1-2.63c-.14-.8-.61-5.26,2.82-8.22a6.23,6.23,0,0,0,3,.51,4.41,4.41,0,0,1,2.4.28c.47.19,8.55.52,10.85-.09a3.94,3.94,0,0,1,3.62,1.88,17.53,17.53,0,0,0,1.4,2c.29.19,0,.9-.28,1.18.75.89,1,3.38,1.18,4.37a14.85,14.85,0,0,1,2.77,6.76c.75-3,.47-8.88.19-10.33l-1.6-2.59Z" transform="translate(-209 -300)"/><path class="cls-1" d="M292.37,376.76a1.21,1.21,0,0,0,1.12-.8,1.24,1.24,0,0,0-.7-1.45,7.27,7.27,0,0,0-4-.94l-.05-1.37a2.15,2.15,0,0,0-.28-1,.72.72,0,0,0-.33-.28.26.26,0,0,0-.33.14,10.94,10.94,0,0,0-.33,1.64c0,.47-.09.9-.09,1a9.07,9.07,0,0,0-3.19.94c-.76.47-.9,1.12-.43,1.64a10.56,10.56,0,0,0,3.38,2.82,3.86,3.86,0,0,0,.1.75c.09.28.19.52.47.61h.23a.59.59,0,0,0,.29-.05c.18,0,.23,0,.28-.14a.72.72,0,0,0,.09-.33v-.18a9.46,9.46,0,0,0,6.62-.66,4.13,4.13,0,0,0,2-2.54c.42-2.16-1.41-4.37-2.49-5.31a15.67,15.67,0,0,0-10.81-3.89c-.84,0-2.11.23-2.49,1.12a.4.4,0,0,0,.15.61,1.8,1.8,0,0,0,.56.14c.23,0,.52,0,.61-.14a.27.27,0,0,0-.19-.32,1.7,1.7,0,0,1-.23,0l-.24-.05c4-.8,7.71.75,10.43,2.54,2.63,1.59,5.4,5.82.52,7.33a8.41,8.41,0,0,1-4.32-.05l.09-3.57a9.35,9.35,0,0,1,3.38.7.32.32,0,0,1,.19.47,2.65,2.65,0,0,1-.33.24,1.14,1.14,0,0,0-.33.09c-.14.33.57.38.71.33ZM287.25,375l-.19,3a7.88,7.88,0,0,1-2.91-2.11c-.19-.19-.1-.33.18-.47a8.3,8.3,0,0,1,2.92-.43Z" transform="translate(-209 -300)"/><path class="cls-1" d="M298.24,373a3.9,3.9,0,0,0,1.27.09c1.08-.14,3.33-1.36,3.05-2.91-.05-.38-.38-.52-.66-.61a1.31,1.31,0,0,0-.51-.14c-.19-.52-.62-.61-1.41-.57a3.44,3.44,0,0,0-2.87,1.93,1.38,1.38,0,0,0,.24,1.59c-.1.66.18,1.09.47,1a.36.36,0,0,0,.32-.23l.1-.14Zm1.78-3.29a13.14,13.14,0,0,0-1.88,2c-.14-.19-.32-.8-.09-1.08a3.08,3.08,0,0,1,2-.89Zm1.6,1.22a2.4,2.4,0,0,1-1.22.94,3.16,3.16,0,0,1-1.5.14,3.55,3.55,0,0,1,2.44-1.74c.47,0,.42.42.28.66Z" transform="translate(-209 -300)"/><path class="cls-1" d="M318.15,380a4.16,4.16,0,0,0,1.56-.23,3.74,3.74,0,0,0,1.92-1.6c1.08-1.59.19-4-1-3.33a11.18,11.18,0,0,0-2.91,2.91c-.19-.38,0-.85.28-1.36a5.48,5.48,0,0,1,.47-.75c.14-.29.28-.52.37-.76l.05-.37a.68.68,0,0,0,.05-.28c-.05-.1-.1-.14-.19-.1a2.71,2.71,0,0,0-.42.28,12,12,0,0,0-.9,1.09c-.56.89-1.08,2.25-.51,3.28a21.4,21.4,0,0,0-.94,3c-.1.33-.19.7-.28,1a1.48,1.48,0,0,0,.09.94,2.35,2.35,0,0,0,.56.66c.24.14.57.24.61-.14a23.49,23.49,0,0,1,1.22-4.28Zm3-2.67a2.84,2.84,0,0,1-2.35,1.17,7.78,7.78,0,0,1,2.26-2.58c.37.05.42,1.08.09,1.41Z" transform="translate(-209 -300)"/><path class="cls-1" d="M313,378.31c.1-.19.15-.38.24-.56s.14-.38.19-.52h1c.42,0,.94,0,1.08-.19s.05-.23.05-.42a.27.27,0,0,0-.05-.19,2.77,2.77,0,0,0-.89-.19l-.8,0a1.88,1.88,0,0,1,.19-.71,7.79,7.79,0,0,0,1.08,0,4.42,4.42,0,0,0,1.08-.09c.19,0,.42-.14.37-.38a1.57,1.57,0,0,0-.75-.84c-.37-.14-3.75.09-3.85.47a.56.56,0,0,0,.38.51,3.27,3.27,0,0,0,.33.14l.28.1-.19.42a1.8,1.8,0,0,1-.24.42l-.32.1c-.19.14-.19.19-.19.23a1.89,1.89,0,0,1,.09.52.47.47,0,0,1-.09.28c-.05.19-.14.38-.19.56a1.64,1.64,0,0,0,0,1.32c.94,1.55,3,.14,3.81-.42.14-.1.09-.24,0-.38a.93.93,0,0,0-.23-.37c-.14-.15-.57-.05-1,0s-1,.18-1.41.23Z" transform="translate(-209 -300)"/><path class="cls-1" d="M307.77,376.15c.29.52.47.89.66,1.27a5.67,5.67,0,0,0,.85,1.36c.33.38.61.47.84.42a.58.58,0,0,0,.28-.09l.15-.14c1.31-1,.56-4.93-.94-5.78-.15-.05-.24-.05-.29.05a.46.46,0,0,0,0,.33l.43,1.88a6.94,6.94,0,0,1,.23,2,5.69,5.69,0,0,1-1.13-1.5,6.53,6.53,0,0,0-1.08-1.51.36.36,0,0,0-.51.14,8.45,8.45,0,0,0-.85,4.28.75.75,0,0,0,.61.7.54.54,0,0,0,.47-.42l.24-2.82,0-.14Z" transform="translate(-209 -300)"/><path class="cls-1" d="M303.36,375a16.51,16.51,0,0,0,2.11,0c.47-.05.89-.57.24-.8-1.22-.47-5-.52-5.36,1.12-.42,2,3.85.24,4.42,1.79s-4,1.55-3.67.56c.24-.84,2,.75,2.82-.18.19-.19,0-.33-.19-.43-1.5-.75-4.36-.28-3.05,1.51.89,1.26,4.6,1.31,5.12-.57s-.84-2.16-2.3-2.3c-.09,0-2,.09-1.93-.28s1.13-.38,1.79-.42Z" transform="translate(-209 -300)"/><path class="cls-1" d="M322.9,375.07A1.85,1.85,0,0,0,324,373.8a1,1,0,0,0-1-1.22c-.89,0-.8,1.22-.18,1.46,0,.09,0,.09,0,.18l-.19.19a2.31,2.31,0,0,0-.14.19c-.14.47,0,.7.42.47Z" transform="translate(-209 -300)"/><path class="cls-1" d="M298.52,374.27a16,16,0,0,0-.24,4.75c0,.23.33.37.62.42a.54.54,0,0,0,.61-.52c0-.42,0-2.82-.05-3.9a1.49,1.49,0,0,0-.38-1.08c-.23-.23-.47,0-.56.33Z" transform="translate(-209 -300)"/><path class="cls-1" d="M326.7,375.49c.66,0,1.46.1,2.12,0,.47-.09.89-.61.23-.84-1.22-.43-5-.52-5.35,1.12-.42,2,3.85.29,4.41,1.84s-4,1.55-3.66.51c.23-.84,2,.8,2.82-.14.19-.19,0-.33-.19-.42-1.5-.8-4.18-.33-3,1.5.85,1.18,4.37,1.32,5-.61.56-1.69-.85-2.16-2.3-2.25-.05-.05-2,0-1.93-.33s1.13-.33,1.78-.38Z" transform="translate(-209 -300)"/><path class="cls-1" d="M382.74,400.62c-1.64,0-6.48.43-7.93,0-.57-1.45.23-14.14.37-16.67h-.28c-1.46.51-6.76-.19-8.41.23-.89,3.43.14,6.72,0,10.2.61.7.19,1.22-.05,1.92-.65,2.21,0,7.38.1,9.82,4.55.52,9.49-.61,14.09-.14a2.59,2.59,0,0,1,2.21.09,12.53,12.53,0,0,0-.1-5.45Z" transform="translate(-209 -300)"/><path class="cls-1" d="M302.14,406c2.25.47,5-.24,7.51.14.57-1.55-.51-11.61.24-11.89,1.69.71,4.84,4.75,6.57,5.26.8-.37,3.71-4.18,5.64-5.59.42.52-.37,10.62.09,12,2.49.7,7-.8,9.63.19-1.22-1.32.05-2.54-.23-3.34-.56-1.78.14-2.82-.24-4.37-.51-2.39-1.31-12.26-.28-14.18-1.22-.52-7-.29-8.73-.33-1.65,1.64-3.48,6.2-5.74,7.47-2.06-.43-4.08-6.81-5.49-7.61-3.15.7-5.68,0-8.74.37-.09,3.24-1,20.25-.23,21.85Z" transform="translate(-209 -300)"/><path class="cls-1" d="M296.5,384.18a4,4,0,0,0-1.64.28l-1.13-.18c-.66-.47-4,.18-5.64-.24l-.33.14c0,3.95-.19,7.8-.19,11.79,0,.75.47,2,.38,2.63a32.28,32.28,0,0,0-.42,7.33c1.22,0,8.12-.14,8.69.14h.19c.89-7.23-.24-14.65.09-21.89Z" transform="translate(-209 -300)"/><path class="cls-1" d="M259.25,397.1c.38.7.19,7.66,0,8.83,1.46.52,5.59-.28,7.75.05a5.38,5.38,0,0,1,0-1.5c-1.08-1.27-.14-7.66-.23-9.73.65.61,1.64,1.69,2.81,3,1,.28,1.79,2,2.73,3.05,2.53,2.21,4.41,4.8,5.35,5.36,1.37-.05,2.07-1,3.43-.14,2.4.14,1-1.74.94-2.73s.42-1.78.28-2.72c-.47-3.43-.42-10.85.33-14.14-.14-.85-.14-1.69-.33-2.54-2.3.47-4.6-.47-6.85,0-.33.89-.1,7,.09,9-.19-.09-1.5-1.27-2.73-2.3-.7,0-.79-.75-1.17-1.08a7.46,7.46,0,0,1-2.49-2.72c-1.08-1.27-1.31-1.51-2.39-2.78-.94.29-1.74.71-2.59,0l-1.27,0c-.89,1-2.82-.52-3.94.37.84,1.27.7,11,.28,12.78Z" transform="translate(-209 -300)"/><path class="cls-1" d="M235.29,417.16a4.39,4.39,0,0,1,1.22-.38c3.71,0,3.62,8.22,8,8.22,2,0,3.71-1.08,5.54-1.64a1.3,1.3,0,0,0,.71-.94c0-.14-.19-.19-.43-.19a9.15,9.15,0,0,1-2,.57c-3.33,0-3.42-7.8-8.36-7.8a8.36,8.36,0,0,0-1,0l-.05,0c4.6-3,6-3.95,8.83-4.18a1.73,1.73,0,0,0,.89-.66c0-.14-.14-.24-.33-.24-1.26,0-2.49.15-3.71.15-1.78,0-2.72-.15-3-.15a2.35,2.35,0,0,0-1.17.66c0,.1.09.19.38.24s.51.14.51.33c0,.47-2,1.64-6.06,4.32v-3a1.65,1.65,0,0,1,1.46-1.69,1,1,0,0,0,.8-.71c0-.14-.1-.19-.57-.19s-1.45.15-4.32.15c-2.53,0-3.43-.15-3.9-.15-.18,0-1.08.52-1.08.76,0,.09.19.14.52.14,1.41.09,2.3.37,2.3,1.69v9.72a1.68,1.68,0,0,1-1.46,1.69,1,1,0,0,0-.79.71c0,.14.14.19.61.19s1.41-.15,4.27-.15c2.54,0,3.43.15,4,.15.19,0,1-.52,1-.76,0-.09-.19-.14-.52-.14-1.4-.09-2.3-.37-2.3-1.69v-5.07Z" transform="translate(-209 -300)"/><path class="cls-1" d="M258.87,412.51a1.69,1.69,0,0,1,1.51-1.69,1,1,0,0,0,.8-.71c0-.14-.15-.19-.62-.19s-1.4.15-4.27.15c-2.54,0-3.43-.15-4-.15-.18,0-1,.52-1,.76,0,.09.19.14.52.14,1.36.09,2.3.37,2.3,1.69v9.72a1.72,1.72,0,0,1-1.5,1.69,1,1,0,0,0-.8.71c0,.14.14.19.61.19s1.41-.15,4.27-.15c2.54,0,3.43.15,4,.15.19,0,1-.52,1-.76,0-.09-.19-.14-.51-.14-1.37-.09-2.31-.37-2.31-1.69v-9.72Z" transform="translate(-209 -300)"/><path class="cls-1" d="M268.41,414.29h.09l8.08,8.08c2.4,2.35,2.16,2.63,2.92,2.63a6.3,6.3,0,0,0,2.53-1c1.27-.71,1.88-.52,1.88-1.32s-.14-1.36-.14-3.29V415c0-3.47.38-3.85,1.41-4.22a1.8,1.8,0,0,0,.61-.71c0-.09-.14-.19-.52-.19s-2.3.15-3.43.15c-1.59,0-2.81-.15-3.24-.15a2.12,2.12,0,0,0-1.12.66c0,.24.18.24.65.24,2.21,0,3.15.56,3.15,2.86v7.24h0l-8.92-8.74c-1.32-1.32-1.74-2.26-2.49-2.26-.47,0-1.55.15-2.87.15-.84,0-2.06-.15-2.39-.15-.75,0-1.41.52-1.41.71s.19.19.47.19c1.83,0,2.3.65,2.3,2.86v7.57c0,1.87-.56,2.58-1.46,2.67a1.85,1.85,0,0,0-.84.71c0,.14.14.19.42.19,1.55,0,2.63-.15,3.38-.15s2.45.15,3.81.15a2,2,0,0,0,1-.66c0-.14-.28-.24-1.08-.24-2.16,0-2.72-.8-2.72-3.47v-6.16Z" transform="translate(-209 -300)"/><path class="cls-1" d="M301.34,421.48c0,1.27-1.41,1.69-3,1.69-4.09,0-6.81-2.07-6.81-6.34,0-3.9,2.68-5.59,6.06-5.59,3.9,0,5.78,1,6.06,2s.47,1.13.7,1.13a.67.67,0,0,0,.47-.33c.1-.19.42-.19.42-.37a20.94,20.94,0,0,1-.18-2.21,12.7,12.7,0,0,1,.18-1.74c0-.19-.14-.24-.32-.24a12.59,12.59,0,0,1-2.26.33c-1,0-1.83-.33-4.32-.33-6.72,0-11.56,4.28-11.56,8.65s3.95,7.37,9.91,7.37c4.37,0,5.88-2.11,8.6-2.11a1.52,1.52,0,0,0,1-.61,2.18,2.18,0,0,1-.19-.89v-2.35c0-1.27,1.17-1.22,1.27-1.37.33-.51.75-.61.75-.79s-.19-.24-.47-.24-1.32.14-5.07.14c-2.26,0-3.1-.14-3.43-.14s-1.13.56-1.13.75.42.14.94.19c1.6.19,2.35.61,2.35,1.6v1.83Z" transform="translate(-209 -300)"/><path class="cls-1" d="M311.16,421.1c0,2.07-.52,2.54-1.6,2.73a1,1,0,0,0-.71.66c0,.14.1.23.47.23s1.08-.14,3.15-.14c2.3,0,3.9.24,5.73.24,6.67,0,11.93-3.29,11.93-8.41,0-4.51-3.75-6.72-9.44-6.72a31.43,31.43,0,0,0-3.29.14c-.89.05-1.88.14-4.41.14a26.52,26.52,0,0,1-3.62-.14c-.09,0-1,.47-1,.66s.38.19,1,.23a1.82,1.82,0,0,1,1.79,2.07v8.31Zm4.74-9.44a22.65,22.65,0,0,1,3.15-.23c3.85,0,6.34,1.55,6.34,5.4,0,4.18-1.88,6.29-5.78,6.29a8.78,8.78,0,0,1-3-.42c-.51-.14-.7-.66-.7-1.64v-9.4Z" transform="translate(-209 -300)"/><path class="cls-1" d="M354,416.59c0-4-4-6.95-9.53-6.95-5.69,0-11.93,3.48-11.93,8.27,0,4.09,4,7,9.48,7,5.74,0,12-3.48,12-8.32Zm-4.74,1c0,3.76-2.63,5.36-6,5.36-3.19,0-6-1.93-6-6,0-3.76,2.63-5.35,6-5.35,3.19,0,6,1.92,6,6Z" transform="translate(-209 -300)"/><path class="cls-1" d="M369,419.65c-2.39-4.56-3.57-5.69-4.84-8.32-.61-1.17-.42-1.5-1.08-1.5s-1.64.14-2.82.14c-1.59,0-2.86-.14-3.14-.14a1.89,1.89,0,0,0-1.18.75c0,.1.19.14.47.14,1.41.14,2,.33,2,1.13s-.46,3.1-1.26,7.94c-.52,3-.9,3.71-2.16,4a1.7,1.7,0,0,0-.71.7c0,.14.09.19.42.19,1.32,0,2.54-.14,3.34-.14s1.6.14,3.52.14a1.78,1.78,0,0,0,.94-.66c0-.18-.19-.23-1.08-.23-1.08,0-2.21-.52-2.21-1.65a77.3,77.3,0,0,1,1.18-8.36h.09c5.73,10.34,5.4,11.09,6.25,11.09.56,0,.56-.56,2.72-1.36.71-.24.47-1,1.18-2.45l3.57-7h.09c.33,3.29,1.13,5.87,1.13,8.13,0,1.41-1.83,1.5-1.93,1.6-.23.28-.56.42-.56.61s.14.23.47.23c1,0,3.76-.14,5.12-.14,1.69,0,2.87.14,3.95.14.28,0,.65-.05.75-.23s.51-.33.51-.43-.18-.23-.7-.23c-1-.1-2.21-.38-2.49-2.73-.24-2-1.6-8-1.6-9.06s1.22-1.13,1.36-1.27c.29-.23.8-.56.8-.7s-.18-.24-.42-.24c-.47,0-1.27.14-3.19.14s-2.59-.14-3-.14c-1.08,0-.85.71-1.41,2-.85,1.84-2.07,4.14-4,7.85Z" transform="translate(-209 -300)"/><path class="cls-1" d="M235.39,406.26c.47-.19,1.5-3.19,2.35-3.57A19,19,0,0,1,246,403c.37.37,1.83,3.19,2.16,3.24.61,0,3-.38,3-.38.84.57,2.39,0,3.38-.09,0,0,1.69.52,1.74,0-.19-.56-.9-1.6-1.18-2.3-.8-1.83-1.92-3.71-2.72-5.54a27.42,27.42,0,0,1-.71-2.73,45.1,45.1,0,0,0-2.11-4.13c-.38-1.27-.42-2.44-.89-3.81A1.84,1.84,0,0,1,248,385c-.14-.19-.66-.94-.89-1-2.16.52-9.72.19-12.4.05-1.27-.56-2,.24-3-.14a1.46,1.46,0,0,0-.19.89c-.66,2.4.33,2.77-.23,4.09.65.42,3.47-.38,3.94.28s-3.52,9.77-4.69,11.65c-.43.66-1.65,3.67-1.88,3.76a2.58,2.58,0,0,0-.9,1.36c1.84.28,6.58-.05,7.57.33Zm4.46-12.35c.19-.38.56-1.69.84-2.21.76-1.32,1.7-.19,2.17.84a27.6,27.6,0,0,1,1.69,5.31c0,.85-3.24,1.08-5.31.61a2.08,2.08,0,0,1-.57-1.17,16.56,16.56,0,0,1,1.18-3.38Z" transform="translate(-209 -300)"/><path class="cls-1" d="M342.3,406.26c.52-.19,1.55-3.19,2.4-3.57a18.69,18.69,0,0,1,8.17.33c.37.37,1.83,3.19,2.16,3.24.61,0,3-.38,3-.38.84.57,2.39,0,3.38-.09,0,0,1.74.52,1.79,0-.19-.56-.9-1.6-1.23-2.3-.75-1.83-1.92-3.71-2.72-5.54a27.35,27.35,0,0,1-.7-2.73,44.68,44.68,0,0,0-2.12-4.13,31.45,31.45,0,0,0-.89-3.81,2,2,0,0,1-.56-2.3c-.15-.19-.62-.94-.9-1-2.16.52-9.72.19-12.35.05-1.27-.56-2,.24-3-.14a1.9,1.9,0,0,0-.14.89c-.7,2.4.28,2.77-.28,4.09.7.42,3.48-.38,3.95.28s-3.48,9.77-4.65,11.65c-.47.66-1.7,3.67-1.88,3.76a2.6,2.6,0,0,0-.94,1.36c1.83.28,6.57-.05,7.56.33Zm4.51-12.35c.14-.38.56-1.69.8-2.21.75-1.32,1.69-.19,2.16.84a27.6,27.6,0,0,1,1.69,5.31c0,.85-3.19,1.08-5.26.61a1.79,1.79,0,0,1-.57-1.17,14,14,0,0,1,1.18-3.38Z" transform="translate(-209 -300)"/><path class="cls-1" d="M384.81,413a1.65,1.65,0,0,1,0-3.28,1.65,1.65,0,0,1,0,3.28Zm0,.29a1.93,1.93,0,1,0-1.88-1.93,1.86,1.86,0,0,0,1.88,1.93Zm-.89-2.92c.23.05.23.05.23.29V412c0,.19,0,.19-.23.23v.1h.89v-.1c-.23,0-.23,0-.23-.23v-.57h.18c.29.43.47.9.61.9h.43v-.05c-.1-.14-.24-.28-.38-.47l-.28-.42a.67.67,0,0,0,.42-.57.55.55,0,0,0-.61-.56h-1v.09Zm.66.05h.18c.19,0,.33.1.33.42s-.09.47-.33.47h-.18v-.89Z" transform="translate(-209 -300)"/></svg>