<?xml version="1.0" encoding="utf-8"?>
<!-- Generator: Adobe Illustrator 23.0.2, SVG Export Plug-In . SVG Version: 6.00 Build 0)  -->
<svg version="1.1" id="Layer_1" xmlns="http://www.w3.org/2000/svg" xmlns:xlink="http://www.w3.org/1999/xlink" x="0px" y="0px"
	 viewBox="0 0 950 500" style="enable-background:new 0 0 950 500;" xml:space="preserve">
<style type="text/css">
	.Arched_x0020_Green{fill:url(#SVGID_1_);stroke:#FFFFFF;stroke-width:0.25;stroke-miterlimit:1;}
	.st0{fill:#E4E4E4;}
	.st1{fill:#282B6E;}
	.st2{fill:#2B2D7B;}
	.st3{fill:#0D5EA5;}
	.st4{fill:#5FA644;}
	.st5{fill:#ED2024;}
	.st6{fill:#FCB216;}
	.st7{fill:#FFFFFF;}
	.st8{fill:#EE2826;}
	.st9{fill:#2C2A73;}
	.st10{fill:#0E4D98;}
	.st11{fill:none;}
	.st12{font-family:'ArialMT';}
	.st13{font-size:6px;}
</style>
<linearGradient id="SVGID_1_" gradientUnits="userSpaceOnUse" x1="0" y1="500" x2="0.7071" y2="499.2929">
	<stop  offset="0" style="stop-color:#20AC4B"/>
	<stop  offset="0.9831" style="stop-color:#19361A"/>
</linearGradient>
<polyline class="st0" points="125.95,238.08 125.95,223.75 192.09,223.75 192.09,238.08 "/>
<polygon class="st0" points="482.67,113.54 450.19,180.13 425,120.77 330.1,161.05 239.57,114.93 165.88,259.56 310.52,333.26 
	325.97,302.93 339,333.62 459.09,282.64 557.41,330.6 628.57,184.7 "/>
<rect x="203.18" y="128.98" transform="matrix(0.454 -0.891 0.891 0.454 -31.983 368.0909)" class="st1" width="162.33" height="162.33"/>
<rect x="760.94" y="225.94" class="st0" width="55.28" height="12.53"/>
<rect x="761.07" y="217.29" class="st1" width="62.64" height="13.3"/>
<polygon class="st2" points="186.4,218.19 180.46,230.2 135.38,230.46 135.25,218.19 "/>
<rect x="588.45" y="139.35" transform="matrix(0.9205 -0.3907 0.3907 0.9205 -32.9308 279.1739)" class="st0" width="162.33" height="162.33"/>
<rect x="597.75" y="126.95" transform="matrix(0.9205 -0.3907 0.3907 0.9205 -27.3463 281.8224)" class="st3" width="162.33" height="162.33"/>
<g>
	<g>
		<path class="st4" d="M603.21,186.43c-4.61-1.4-7.41-2.6-8.41-3.6c12.35-6.74,23.43-9.61,33.24-8.61l1.3-1v-3
			c-6.01-3.61-10.15-4.34-12.42-2.2l-2.5-2.7l2.5-2.7h2.9v-3c11.21-4.01,17.49-5.14,18.83-3.41c18.76-8.41,32.38-12.45,40.86-12.12
			l1.5,1.5l-10.51,9.61l1.5,1.3h2.4l3-5.51c19.83-8.41,36.12-10.55,48.87-6.41l-7.51,9.61c5.34,4.27,14.89,3.7,28.64-1.7l2.7,6.01
			l14.12,9.01c3.27,4.14,1.9,10.78-4.1,19.93l1.6,1.3c6.68-6.07,12.85-7.21,18.53-3.41c4.87,6.74,7.81,18.83,8.81,36.25l-3.2,2.6
			l-11.52,5.71l-1.6,1l-8.01-11.62c-4.27-4.54-11.52-2.57-21.73,5.91l-3-3.1c7.41-7.74,9.65-13.25,6.71-16.52l-5.71-0.5l-9.11,8.51
			l-5.91,8.01c-2.67-2.94-8.95-0.9-18.83,6.11l-2.91,3.2c-3.94,15.29-1.57,25.84,7.11,31.64l11.11,5.91v3.2l-18.73,0.5
			c-11.82-12.82-14.05-29.17-6.71-49.07l-5.41,2.6l1,1.5c-12.95,11.75-14.99,25.5-6.11,41.26l-1.6,1.2l-30.24,3l-2.5-3l-1.1-10.11
			l16.72-23.23l-4-4.41c-1.6-2.07-4.47-1.3-8.61,2.3l-7.91-9.01l-1.7-1.6l-2.5-5.41c-6.07-6.67-13.65-8.04-22.73-4.11l1.5,1.5h2.6
			l4.61,4.71l-1.5,1.3l-6.21-0.5v3.1c-8.08,7.08-18.49,7.58-31.24,1.5C587.96,217.94,592.33,204.85,603.21,186.43z M619.23,209.66
			l2.6,0.5c4.47-7.41,7.84-16.86,10.11-28.34l-15.52,0.5l-3.1,3c7.41,9.48,8.45,16.56,3.1,21.23L619.23,209.66z M642.06,183.83
			c0.67-6.41,5.21-13.48,13.62-21.23l3.2-2.5h2.5l-1-1.6v-2.3l-22.23,11.32l-3.1,14.32L642.06,183.83z M646.07,212.46h3.2
			l13.52,14.72l17.72-7.41l-1.5-1.6c0.34-10.15-1.77-18.39-6.31-24.73l-1.2,1.5l-2.6-3l-1.6,1.5c3.94,4.27,4.67,9.95,2.2,17.02
			l-1.7,1.5l-4-4.31l-5.41-11.72c-11.62-4.14-18.19-5.47-19.73-4.01l18.03,13.62l4.91,5.91v3.1c-1.47,1.4-5.57-0.23-12.32-4.91
			l-1.5-1.5l0.5-2.6l-6.21-0.5L646.07,212.46z M648.77,188.53l14.52-5.21l-4.91-12.12l-1.7,1.5h-3l-4.41,4.21l-3.2,8.41
			L648.77,188.53z M684.42,224.18l3.1-5.41l14.72-8.31c1-10.68,0.5-20.23-1.5-28.64l-1.6,1.5l-3.6,17.02l-1.6,1h-2.8
			c-4.14-7.08-6.97-16.29-8.51-27.64l-16.32,6.41v3.2l9.61,4.71C680.52,192.97,683.36,205.02,684.42,224.18z M676.41,266.44l1.5-1.5
			c-2-2.27-3.17-7.44-3.5-15.52l-1.2-1.5c-2.47,2.34-4.07,8.34-4.81,18.02L676.41,266.44z M676.91,168l15.72,2.2l1.3-1.7
			l-7.91-11.52l-1.6-1.3l-9.01,11.11L676.91,168z M716.17,214.07l16.22-12.22c5.07-4.61,6.54-7.74,4.41-9.41l-0.7-1.7l10.11-3.81
			v-3.1l12.12-7.91l-7.21-7.41l-3.2-0.5l-13.32,18.43h-2.7l-0.5,8.51l-11.62,8.01l-1.5-1.6c-1.73-3.94,2.47-15.22,12.62-33.85
			l-1-1.2l-8.61,2.2l-4.51,4.21l-1.9,10.11l-1.5,1l-1.5-1.5c0-10.68,1.27-17.26,3.8-19.73l-2.8-3l-8.61,2.5l-3,2.7l7.41,23.23
			l3.21,0.5l-1.1,17.02l1.6,1l2.8,0.5L716.17,214.07z M759.63,201.85l7.21,1.7l1,6.91l2.3,3.1l6.31-5.41l-3.71-15.72
			c-1.73-1.8-5.07-0.47-10.01,4.01l-4.41,3.91L759.63,201.85z"/>
	</g>
</g>
<rect x="448.18" y="126.95" transform="matrix(0.4384 -0.8988 0.8988 0.4384 110.2408 592.6534)" class="st5" width="162.33" height="162.33"/>
<rect x="310.13" y="133.63" transform="matrix(0.9205 -0.3907 0.3907 0.9205 -52.8203 169.9694)" class="st6" width="162.33" height="162.33"/>
<g>
	<path class="st7" d="M379.57,262.36c-4.35,1.07-9.82,3.07-16.43,5.98c-6.61,2.92-14.83,7.53-24.65,13.84
		c1.73-7.56,5.89-16.71,12.5-27.46c6.61-10.75,13.96-20.79,22.06-30.14l0.45,1.43c-2.8,4.59-5.19,8.68-7.19,12.28
		c-2,3.6-3.87,7.18-5.63,10.72c-1.76,3.54-3.65,9.01-5.67,16.39c6.85-2.44,13.93-4.91,21.25-7.41c0.48-9.82,2.56-18.1,6.25-24.83
		l2.14,0.63c-1.07,2.09-2,4.76-2.77,8.04C380.7,247.12,379.93,253.97,379.57,262.36z M347.96,230.21
		c-4.88-8.69-7.32-17.86-7.32-27.51c0-9.59,2.5-18.8,7.5-27.64c5-8.84,11.91-15.67,20.72-20.5c7.92-4.29,16.02-6.61,24.29-6.97
		l-0.09,0.8c-6.73,0.66-13.37,2.71-19.92,6.16c-8.04,4.35-14.3,10.55-18.8,18.62c-4.5,8.07-6.74,16.45-6.74,25.14
		c0,8.81,2.2,17.15,6.61,25.01c2.32,4.23,5.15,7.89,8.48,10.98c-2.62,3.34-4.59,5.93-5.89,7.77
		C353.29,238.64,350.34,234.68,347.96,230.21z M398.95,198.6c-1.43,2.92-2.92,5.78-4.47,8.57c2.44,3.51,4.67,7.03,6.7,10.54
		c4.11-5.54,7.62-11.31,10.54-17.33l3.04-1.34l-0.45,1.34c-2.92,6.91-6.79,13.66-11.61,20.27c2.5,4.35,4.85,8.81,7.06,13.4
		l-3.75,3.22c-1.85-4.29-3.84-8.51-5.98-12.68l-3.66,4.38l-2.86-1.79c1.73-1.9,3.33-3.75,4.82-5.54c-1.91-3.57-3.96-7.06-6.16-10.45
		c-1.79,2.92-3.69,5.78-5.72,8.57c3.81,6.31,7.17,12.83,10.09,19.56l-4.11,1.43c-2.5-5.95-5.36-11.79-8.57-17.5
		c-1.49,2.02-3.1,3.93-4.82,5.72l-1.61-3.48c1.55-1.67,3.09-3.42,4.64-5.27c-2.2-3.51-4.5-7.06-6.88-10.63
		c-1.61,2.02-3.21,3.96-4.82,5.8l-1.7-3.39c1.55-1.73,3.07-3.42,4.55-5.09c-2.2-3.09-4.5-6.1-6.88-9.02
		c-2.14,3.39-4.47,6.64-6.97,9.73c1.31,1.61,2.47,3.36,3.48,5.27c2.32,3.81,4.41,7.62,6.25,11.43l-3.66,0.27
		c-1.85-3.81-3.93-7.65-6.25-11.52l-1.79-3.04l-2.41,2.86l-1.52-3.48l2.32-2.5c-1.25-2.32-2.41-4.79-3.48-7.41
		c1.79,1.49,3.48,3.34,5.09,5.54c2.44-3.09,4.79-6.25,7.06-9.47c-2.38-3.09-4.73-6.55-7.06-10.36c3.22,2.02,6.28,4.5,9.2,7.41
		c1.67-2.62,3.21-5.18,4.64-7.68c-3.1-3.33-6.1-7.08-9.02-11.25c3.99,1.96,7.59,4.5,10.81,7.59c0.71-1.37,1.49-2.83,2.32-4.38
		c0.89-1.96,1.82-3.96,2.77-5.98c-2.68-2.62-5.27-5.18-7.77-7.68l0.45-3.39c2.92,2.44,5.83,5.03,8.75,7.77
		c0.59-1.49,1.19-3.09,1.79-4.82l2.05-1.61c-0.77,2.68-1.61,5.24-2.5,7.68c3.39,3.22,6.61,6.61,9.64,10.18
		c1.25-2.32,2.35-4.73,3.3-7.23l2.23-0.89c-1.07,3.39-2.38,6.7-3.93,9.91c1.13,1.01,2.23,2.17,3.3,3.48
		c1.61,2.09,3.21,4.23,4.82,6.43c0.59-1.37,1.19-2.68,1.79-3.93l2.32-0.71c-0.77,2.14-1.7,4.32-2.77,6.52
		c1.07,1.19,2.08,2.47,3.04,3.84l-1.43,1.88l-3.22-0.63c-0.12-0.18-0.27-0.33-0.45-0.45C399.28,197.67,399.07,198.12,398.95,198.6z
		 M373.68,234.68l3.48-1.07c-3.51,6.43-5.72,13.57-6.61,21.43c-3.21,1.55-7.14,3.39-11.79,5.54
		C364.18,251.82,369.15,243.19,373.68,234.68z M372.79,186.54c-1.31,2.62-2.77,5.33-4.38,8.13c0.59,0.6,1.25,1.19,1.96,1.79
		c1.79,2.32,3.6,4.73,5.45,7.23c1.84-2.5,3.63-5.06,5.36-7.68C378.5,192.79,375.7,189.64,372.79,186.54z M379.57,172.25
		c-1.43,3.39-2.98,6.76-4.64,10.09l-0.18,0.63l1.07,1.07c2.62,2.8,5.15,5.66,7.59,8.57c1.84-3.22,3.6-6.43,5.27-9.65
		C385.83,179.22,382.79,175.65,379.57,172.25z M382.97,198.33c-1.67,2.62-3.45,5.21-5.36,7.77c2.68,3.51,5.09,7.09,7.23,10.72
		c1.96-2.62,3.81-5.33,5.54-8.13C388.06,205.18,385.59,201.72,382.97,198.33z M397.88,248.52c8.69,0,17.06-2.2,25.1-6.61
		c0.77-0.48,1.52-0.92,2.23-1.34c1.73,1.96,3.13,4.11,4.2,6.43c-1.85,1.31-3.78,2.53-5.81,3.66c-8.87,4.88-18.07,7.32-27.6,7.32
		c-4.88,0-9.64-0.62-14.29-1.87c0.3-4.47,0.86-7.71,1.7-9.74C388.12,247.81,392.94,248.52,397.88,248.52z M390.11,184.93
		c-1.55,3.39-3.22,6.64-5,9.73c2.74,3.34,5.33,6.7,7.77,10.09c1.84-3.09,3.6-6.31,5.27-9.65c-2.56-3.69-5.15-7.14-7.77-10.36
		L390.11,184.93z M437.45,207.17c-0.18-8.93-2.35-17.47-6.52-25.63c-4.17-8.16-9.71-14.32-16.61-18.49
		c-7.03-4.29-14.26-6.37-21.7-6.25l-0.18-0.45c2.32-0.42,4.64-0.63,6.97-0.63c6.91-0.3,13.65,1.35,20.23,4.96
		c6.58,3.6,11.82,8.74,15.72,15.41c3.9,6.67,5.94,13.78,6.12,21.34c0.24,5.06-0.45,9.97-2.05,14.74l-2.59,3.66
		C437.36,213.27,437.56,210.39,437.45,207.17z M431.37,218.6c13.4,10,22.52,17.41,27.37,22.24c4.85,4.82,9.87,10.33,15.05,16.52
		c-8.46-1.25-15.79-1.91-22.02-1.96c-6.22-0.06-11.95-0.03-17.19,0.09c-2.5-8.27-7.03-16.49-13.57-24.65l1.61,0.27
		c3.04,2.26,6.01,5.28,8.93,9.06c2.92,3.78,5.09,6.8,6.52,9.06c5.72-0.3,11.52-0.15,17.41,0.45c-2.38-4.29-4.96-8.11-7.72-11.48
		c-2.77-3.36-8.17-9.45-16.21-18.26L431.37,218.6z M423.33,219.05c5.18,4.41,9.81,8.77,13.89,13.08c4.08,4.32,8.2,8.8,12.37,13.44
		c-3.39,0-6.64,0.18-9.73,0.54c-3.63-6.91-9.2-15.33-16.7-25.27L423.33,219.05z M441.55,223.34c4.35-7.86,6.52-16.19,6.52-25.01
		c0-8.69-2.23-17.09-6.7-25.18c-1.85-3.16-3.87-6.01-6.07-8.57l0.45-0.45c3.04,3.22,5.72,6.85,8.04,10.9c5,8.87,7.5,18.1,7.5,27.69
		c0,8.75-1.96,17.06-5.89,24.92c-1.49-1.19-2.95-2.29-4.38-3.3C441.25,223.96,441.43,223.63,441.55,223.34z"/>
</g>
<g>
	<path class="st8" d="M167.65,171.74l3.65,3.22l5.91-3.55l-1.72,5.48l3.44,3.76l-6.66,0.32l-2.9,6.02l-1.29-6.02l-6.45-1.29
		l5.59-2.9L167.65,171.74z M168.19,192.91l-0.32,1.93l2.04,1.29l-1.83,0.32l-0.64,2.36l-1.07-1.83l-2.26,0.43l1.61-1.83l-0.97-2.26
		l1.83,0.97L168.19,192.91z M175.71,199.36l0.21-4.08l3.65,3.22l4.08-1.18l-1.83,3.98l3.33,4.19l-4.51-1.72l-3.01,4.3l-0.64-5.59
		l-4.3-1.93L175.71,199.36z M180.65,185.07l0.97,2.79h3.22l-2.04,1.61l0.65,3.33l-2.47-1.5l-2.47,1.93l0.86-3.33l-2.58-2.04h2.79
		L180.65,185.07z M266.31,152.82l0.21,0.75v7.74l-5.91,1.61l4.08,2.9l-0.54,5.27l4.62-3.44l3.65,2.58l-0.43-6.34l6.88-4.08
		l-4.51,6.66l2.36,8.6l-7.2-3.55l-8.49,5.8l0.65-9.56l-6.99-5.05l8.6-2.58l1.29-6.02c-16.98,12.25-33.57,27.26-49.76,45.03
		c0.79,0.21,1.54,0.43,2.26,0.64c5.8,1.93,12.79,5.41,20.96,10.42c7.67,4.73,16.41,11.21,26.22,19.45c-0.21-1.79-0.21-3.72,0-5.8
		c0.29-2.65,1.11-5.66,2.47-9.03c1.36-3.37,2.97-6.16,4.84-8.38c1-1.07,2.08-2.11,3.22-3.12l-0.65-3.55l-11.39,0.86l6.56-8.17
		l-5.16-9.13l10.32,1.72l8.06-5.59l-5.7,8.28l-6.99-0.32l3.22,4.73l-4.19,4.19l6.99-0.11l2.04,4.41l2.26-6.45h9.35l-2.04,3.01
		c0.07,0,0.18-0.04,0.32-0.11c3.65-0.72,7.02-1.04,10.1-0.97c3.08,0.07,5.93,0.57,8.54,1.5c2.61,0.93,5.32,2.28,8.11,4.03
		c2.79,1.76,5.27,3.94,7.42,6.56c2.15,2.62,3.81,5.25,5,7.9c1.18,2.65,1.92,5.57,2.2,8.76c0.29,3.19,0.11,6.14-0.54,8.87
		c-0.65,2.72-1.5,5.12-2.58,7.2c-1.07,2.08-2.53,3.96-4.35,5.64c-1.83,1.68-3.71,3.12-5.64,4.3c-1.93,1.18-3.98,2.22-6.13,3.12
		c-2.15,0.9-4.55,1.29-7.2,1.18c-2.65-0.11-5.1-0.45-7.36-1.02c-2.26-0.57-4.39-1.56-6.39-2.95c-2.01-1.4-3.67-3.24-5-5.53
		c-1.33-2.29-2.15-4.78-2.47-7.47c-0.32-2.69-0.09-5.23,0.7-7.63c0.79-2.4,1.97-4.41,3.55-6.02c1.58-1.61,3.44-2.88,5.59-3.81
		c2.15-0.93,4.55-1.4,7.2-1.4c2.65,0,4.94,0.57,6.88,1.72c1.93,1.15,3.55,2.58,4.84,4.3c1.29,1.72,2,3.78,2.15,6.18
		c0.14,2.4-0.21,4.44-1.07,6.13c-0.86,1.68-3.22,3.92-7.09,6.72c0.5-1.43,1.15-2.72,1.93-3.87c0.79-1.15,1.11-2.49,0.97-4.03
		c-0.14-1.54-0.93-2.96-2.36-4.25c-1.43-1.29-2.85-2.15-4.25-2.58c-1.4-0.43-3.06-0.3-5,0.38c-1.93,0.68-3.35,1.7-4.25,3.06
		c-0.9,1.36-1.31,2.99-1.24,4.89c0.07,1.9,0.5,3.6,1.29,5.1c0.79,1.5,1.93,2.79,3.44,3.87c1.5,1.07,3.22,1.76,5.16,2.04
		c1.93,0.29,3.89,0.27,5.86-0.05c1.97-0.32,4.08-1.18,6.34-2.58c2.26-1.4,4.1-3.33,5.53-5.8c1.43-2.47,2.13-5.66,2.1-9.56
		c-0.04-3.9-0.66-7.4-1.88-10.48c-1.22-3.08-3.37-5.79-6.45-8.11c-3.08-2.33-6.52-3.87-10.32-4.62c-3.8-0.75-7.25-0.84-10.37-0.27
		c-3.12,0.57-6.29,2.06-9.51,4.46c-3.22,2.4-5.5,4.85-6.82,7.36c-1.33,2.51-2.13,5.3-2.42,8.38c-0.29,3.08-0.2,5.79,0.27,8.11
		c0.47,2.33,1.43,4.84,2.9,7.52c1.47,2.69,4.5,6.36,9.08,11.02c-5.59-3.22-9.55-6.05-11.88-8.49c-2.33-2.43-4.1-4.91-5.32-7.42
		c-1-2-1.76-3.98-2.26-5.91c-3.87-2.94-7.74-5.7-11.61-8.28c-4.8-3.15-10.93-6.41-18.38-9.78c-7.45-3.37-13.51-5.71-18.16-7.04
		c-4.66-1.33-8.35-1.83-11.07-1.5c-2.72,0.32-4.66,1.31-5.8,2.96c-1.15,1.65-1.33,3.78-0.54,6.39c0.79,2.62,2.62,5.75,5.48,9.4
		c2.86,3.65,6.68,7.47,11.45,11.45c4.76,3.98,11.02,8.21,18.75,12.68c7.74,4.48,14.01,7.88,18.81,10.21
		c4.8,2.33,8.58,3.71,11.34,4.14c2.76,0.43,4.58,0.29,5.48-0.43c0.9-0.72,1.04-1.93,0.43-3.65c-0.61-1.72-3.4-4.51-8.38-8.38
		c-4.98-3.87-9.87-7.29-14.67-10.26c-4.8-2.97-10-5.73-15.58-8.28c-5.59-2.54-9.71-4.01-12.36-4.41c-2.65-0.39-4.16,0.74-4.51,3.39
		c-4.66-3.8-7.33-6.97-8.01-9.51c-0.68-2.54,0.59-3.82,3.82-3.82s7.06,0.84,11.5,2.53c4.44,1.68,10.44,4.57,18,8.65
		c7.56,4.08,14.38,8.62,20.47,13.6c6.09,4.98,10.41,9.4,12.95,13.27c2.54,3.87,3.62,6.88,3.22,9.03c-0.39,2.15-1.97,3.26-4.73,3.33
		c-2.76,0.07-6.49-0.59-11.18-1.99c-4.69-1.4-10.95-4.19-18.75-8.38c-7.81-4.19-15.74-9.08-23.8-14.67
		c-8.06-5.59-14.13-10.37-18.22-14.35c-4.08-3.98-7.29-7.65-9.62-11.02c-2.33-3.37-3.6-6.57-3.82-9.62
		c-0.21-3.04,0.81-5.59,3.06-7.63c2.26-2.04,5.82-3.17,10.69-3.39c3.51-0.14,7.24,0.25,11.18,1.18
		c5.16-6.09,10.17-11.78,15.05-17.09c-0.29-5.16-1.54-9.42-3.76-12.79c-2.44-3.58-5.84-5.91-10.21-6.99
		c-4.37-1.07-8.17-0.9-11.39,0.54c-3.22,1.43-5.59,3.17-7.09,5.21c-1.5,2.04-2.36,4.46-2.58,7.25c-0.21,2.79,0.68,5.28,2.69,7.47
		c2,2.19,4.41,3.24,7.2,3.17c2.79-0.07,4.89-1.34,6.29-3.82s1.47-4.93,0.21-7.36c-1.25-2.43-4.53-3.15-9.83-2.15
		c3.72-4.73,7.97-6.13,12.74-4.19c4.76,1.93,7.31,5.55,7.63,10.85c0.32,5.3-1.49,9.67-5.43,13.11c-3.94,3.44-8.47,4.62-13.6,3.55
		c-5.12-1.07-9.05-3.6-11.77-7.58c-2.72-3.98-3.42-9.33-2.1-16.07c1.33-6.73,5.84-11.77,13.54-15.1c7.7-3.33,15.17-3.56,22.41-0.7
		c6.73,2.72,11.21,8.31,13.43,16.77c11.82-12.18,22.57-21.82,32.24-28.91c16.77-12.25,34.39-21.92,52.88-29.02
		c-13.26,18.34-22.89,44.71-28.91,79.1c0.64-12.18,2.11-24.4,4.41-36.65l-1.4-0.21l-1.61,6.88l-3.33-6.45l-8.71-0.22l5.48-5.7
		l-1.61-7.63l6.77,2.04l6.23-3.44l-5.59,6.56l-4.3-0.97l0.54,4.19l-3.01,2.69h5.37l1.72,3.44l1.18-4.84l3.12-0.86
		c1.36-6.95,2.97-13.86,4.84-20.74C289.95,137.49,278.06,144.51,266.31,152.82z M214.94,129.93l1.93,3.01l4.62-1.4l-2.15,3.55
		l1.61,3.33l-4.62-0.97l-3.01,3.76l0.21-4.51l-4.19-2.26l4.41-0.97L214.94,129.93z M227.4,123.81l9.78,3.76l6.66-7.31l1.07,9.99
		l13.22,8.38l-11.28,1.72l1.72,13.76l-8.92-11.71l-11.39,0.21l5.91-9.14L227.4,123.81z M244.81,205.06
		c-4.37-3.87-6.45-8.96-6.23-15.26c0.21-6.3,2.33-10.85,6.34-13.65c4.01-2.79,7.52-3.55,10.53-2.26c-2.36,0.57-4.87,2.19-7.52,4.84
		c-3.51,3.51-5.27,7.7-5.27,12.57c0,4.87,1.75,9.06,5.27,12.57c1.43,1.5,3.01,2.69,4.73,3.55c3.22,0.79,7.2,0.14,11.93-1.93
		l-0.11,0.11c-4.08,4.16-9.03,6.23-14.83,6.23c-5.8,0-10.71-1.77-14.72-5.32c-4.01-3.55-6.06-7.68-6.13-12.41
		c-0.07-4.73,1.22-8.06,3.87-9.99C232.81,196.21,236.86,203.19,244.81,205.06z M237.61,154.54l-0.64-3.22l3.22,1.83l3.65-1.83
		l-2.04,3.44l2.36,2.58l-3.22,0.21l-2.26,2.79l-0.43-3.55l-3.12-0.11L237.61,154.54z M264.48,122.09l2.26,3.33l4.94-2.36l-2.15,4.62
		l1.93,3.76l-4.94-0.54l-3.12,4.94v-5.48l-4.62-2.04l4.62-1.83L264.48,122.09z M301.45,262.34l0.21,8.17l7.63,0.11l-7.52,3.65
		l-1.72,6.88l-4.3-4.73l-7.31,0.21l5.05-3.98l-3.76-3.65l7.42-0.43L301.45,262.34z M312.73,169.91l7.95-6.23l-0.21,11.71l8.49,5.05
		l-10.21,3.44l-2.58,12.79l-3.98-10.75l-12.57,1.93l9.46-10.53l-3.22-10.53L312.73,169.91z"/>
</g>
<g>
	<path class="st9" d="M456.84,207.45c7.14-13.97,12.83-29.39,17.08-46.26c4.68,16.38,10.43,32.26,17.27,47.64
		c-2.28-1.91-4.89-4.52-7.85-7.85c-2.96-3.32-5.51-7.05-7.66-11.17C470.07,196.34,463.79,202.22,456.84,207.45z M486.2,211.51
		c-7.63-1.66-15.24-2.31-22.81-1.94c4.37-4.18,8.31-9.17,11.82-14.96h0.46C478.57,200.4,482.07,206.03,486.2,211.51z M471.89,214.65
		c-1.11,3.94-1.51,7.42-1.2,10.43l7.57,6.65c1.79,1.23,2.74,3.29,2.86,6.19l2.4,37.12l-7.85,3.14c-0.62-7.76-0.22-20.22,1.2-37.4
		l-12.1-11.17c-0.92-5.6-1.08-10.8-0.46-15.6L471.89,214.65z M588.69,293.13c-0.25,2.71-0.25,5.08,0,7.11
		c-30.41-0.18-68.88-0.43-115.42-0.74l0.65-3.23C506.67,295.59,544.92,294.55,588.69,293.13z M580.29,287.41l-0.92,3.51
		c-21.18-0.31-54.72-0.46-100.64-0.46c0.12-3.2,0.31-5.79,0.55-7.76C502.91,283.62,536.58,285.19,580.29,287.41z M506.14,197.2
		l-0.65,7.39l-2.49,25.3l-20.5,0.65c-0.43-2.4-0.96-7.17-1.57-14.31l6.83,0.46c-0.43,3.32-0.59,6.53-0.46,9.6
		c3.02-0.18,7.17-0.58,12.47-1.2c-0.19-6.34-0.46-12.71-0.83-19.11l-0.65-9.05L506.14,197.2z M572.35,274.3
		c-0.31,2.71-0.31,5.11,0,7.2c-15.88-0.25-28.53-0.4-37.95-0.46c-9.42-0.06-23.82-0.09-43.21-0.09l-0.28-3.05
		c11.57-0.43,23.91-0.83,37.03-1.2C541.04,276.33,555.85,275.53,572.35,274.3z M498.76,240.13c0.12,7.26,0.52,14.31,1.2,21.14
		c-2.71,0.43-5.42,1.29-8.13,2.59c0.92-10.46,1.63-18.31,2.12-23.55L498.76,240.13z M494.79,184.83
		c6.34-15.14,10.13-30.87,11.36-47.18l1.2,0.46c3.32,15.27,8.4,31.24,15.23,47.92l-1.38-0.28c-4.43-4.8-8.74-9.79-12.93-14.96
		C502.42,177.93,497.93,182.61,494.79,184.83z M516.39,188.06l1.66,3.42c-8.37,1.23-15.82,2.09-22.34,2.59
		c5.17-5.36,9.42-11.69,12.74-19.02C510.54,179.35,513.19,183.69,516.39,188.06z M532.09,224.07c2.09,0,3.89,0.32,5.4,0.97
		c1.51,0.65,3.34,1.88,5.49,3.69c2.15,1.82,3.75,4.09,4.8,6.83c1.05,2.74,1.72,5.85,2.03,9.33c0.31,3.48,0.31,6.93,0,10.34
		c-0.31,3.42-1.36,8.85-3.14,16.3h-0.74c0.49-7.02,0.74-12.11,0.74-15.28c0-3.17-0.23-6.11-0.69-8.82c-0.46-2.71-1.29-5.29-2.5-7.76
		c-1.2-2.46-2.6-4.48-4.2-6.05c-1.6-1.57-2.86-2.48-3.79-2.72c-0.92-0.25-2.06-0.37-3.42-0.37c-1.35,0.18-2.76,0.62-4.2,1.29
		c-1.45,0.68-2.85,1.86-4.2,3.56c-1.35,1.69-2.46,3.48-3.32,5.36c-0.86,1.88-1.66,4.11-2.4,6.69c-0.74,2.59-1.22,5.05-1.43,7.39
		c-0.22,2.34-0.29,4.38-0.23,6.14c0.06,1.75,0.34,5.43,0.83,11.03h-1.38c-1.11-4.62-1.99-8.28-2.63-10.99
		c-0.65-2.71-1.06-5.45-1.25-8.22c-0.19-2.77-0.08-5.39,0.32-7.85c0.4-2.46,1.09-4.92,2.08-7.39c0.98-2.46,2.18-4.49,3.6-6.09
		c1.42-1.6,3-2.98,4.75-4.15c1.76-1.17,3.38-2,4.9-2.49C529.03,224.31,530.55,224.07,532.09,224.07z M534.3,165.53
		c2.03,4.25,4.25,9.73,6.65,16.44c-0.62,6.34-1.42,16.81-2.4,31.39l-22.62,1.48c-0.62-5.29-1.23-10.71-1.85-16.25
		c2.95-0.61,5.63-1.08,8.03-1.38c-1.11,3.32-1.51,6.8-1.2,10.43c4.12,0.49,8.16,0.8,12.1,0.92l1.11-28.25l-8.68-15.51L534.3,165.53z
		 M541.69,88.24c5.85,20.19,13.17,39.67,21.98,58.45c-10.28-8.31-17.24-15.45-20.87-21.42c-9.36,13.36-16.65,21.02-21.88,22.99
		c5.05-6.65,9.29-15.02,12.74-25.11C537.11,113.05,539.78,101.42,541.69,88.24z M559.33,155.74l-1.94,4.52
		c-15.94,0.8-25.05,0.8-27.33,0l-3.69-6.46C542.62,155.28,553.6,155.92,559.33,155.74z M543.26,129.7
		c4.8,8.43,8.96,15.02,12.46,19.76c-8.13-0.61-16.47-0.34-25.02,0.83C536.12,142.78,540.31,135.92,543.26,129.7z M540.03,85.75
		c-0.49-2.89-0.28-5.69,0.65-8.4c6.4,2.4,11.91,2.88,16.53,1.43c4.62-1.45,9.29-1.21,14.03,0.69l0.65,1.2
		c-3.82-0.68-7.94,0.31-12.37,2.95C555.08,86.27,548.59,86.98,540.03,85.75z M563.02,164.79l-2.03,3.05l-4.8,5.91
		c-1.23,5.29-1.14,18.5,0.28,39.61l12.65-1.38c-0.19-3.2-0.62-6.15-1.29-8.86l8.13-0.28l-2.68,15.97l-22.34-1.2
		c-0.62-15.7-1.51-29.95-2.68-42.75l6.09-9.6C557.97,165.13,560.87,164.97,563.02,164.79z M563.67,226.47l2.49,0.28
		c0.61,7.57,1.66,15.36,3.14,23.36c-3.14-0.18-6.62-0.28-10.43-0.28C560.59,243.8,562.19,236.01,563.67,226.47z M580.93,136.63h1.02
		c3.45,18.96,8.28,37.86,14.5,56.69c-3.32-3.02-8.4-9.54-15.23-19.57c-5.42,8.19-11.05,14.1-16.9,17.73
		C571.95,174.79,577.49,156.51,580.93,136.63z M581.21,178.82c2.09,6.34,5.42,12.53,9.97,18.56c-8.06,0.62-15.42,0.77-22.07,0.46
		C572.62,193.91,576.65,187.56,581.21,178.82z M595.25,201.91c-0.74,8.07-1.63,17.02-2.68,26.87l-7.29,5.63
		c0.92,21.85,1.48,35.95,1.66,42.29l-8.86-2.68c1.17-21.24,1.75-35.33,1.75-42.29l7.57-6.65l-1.38-22.25L595.25,201.91z
		 M605.31,124.25c-1.11,2.4-3.59,4-7.43,4.8c-3.85,0.8-6.99,1.25-9.42,1.34c-2.43,0.09-4.94,1.22-7.53,3.37
		c-1.05-3.02-1.51-6.12-1.38-9.33c3.69-0.31,7.13-0.12,10.29,0.55c3.17,0.68,5.82,1.09,7.94,1.25
		C599.91,126.39,602.42,125.73,605.31,124.25z"/>
</g>
<g>
	<path class="st7" d="M495.43,148.72c-3.32,5.79-7.22,8.6-11.68,8.45c-4.47-0.15-8.05,0.69-10.76,2.54l-3.05-9.42
		c4,0,7.9,0.39,11.68,1.15C485.42,152.22,490.01,151.31,495.43,148.72z M526.36,128.96c-2.22,3.82-5.34,5.49-9.37,5.03
		c-4.03-0.46-7.25-0.11-9.65,1.06c-1.42-1.78-1.88-4.28-1.39-7.48c4.86,0,8.7,0.6,11.5,1.8
		C520.25,130.58,523.22,130.44,526.36,128.96z"/>
</g>
<path class="st10" d="M557.78,360.39v0.94c-0.99,0.03-1.69,0.13-2.11,0.28c-0.75,0.29-1.13,0.83-1.13,1.61
	c0,0.35,0.04,0.68,0.14,1.01c0.09,0.33,0.22,0.75,0.41,1.27l7.25,19.81l5.31-14.75l-2.36-6.47c-0.44-1.19-1.11-1.98-2-2.38
	c-0.53-0.24-1.32-0.37-2.38-0.39v-0.94h13.52v0.94c-1.27,0.02-2.15,0.11-2.63,0.28c-0.75,0.29-1.13,0.9-1.13,1.82
	c0,0.31,0.03,0.58,0.09,0.81c0.07,0.23,0.23,0.72,0.49,1.44l7.27,19.76l6.3-17.88c0.36-1.02,0.6-1.92,0.73-2.72
	c0.08-0.45,0.13-0.81,0.13-1.09c0-0.98-0.44-1.66-1.33-2.04c-0.5-0.23-1.24-0.35-2.23-0.39v-0.94h10.03v0.94
	c-0.9,0.14-1.59,0.36-2.07,0.65c-0.85,0.51-1.49,1.38-1.91,2.61l-5.27,15.68l-2.04,6.08l-3.2,9.52h-0.76l-2.22-6.06l-5.83-16.19
	l-7.72,22.25h-0.76l-3.74-10.93l-4.22-12.32c-1.75-5.1-2.97-8.23-3.67-9.4c-0.7-1.17-1.79-1.8-3.27-1.88v-0.94H557.78"/>
<path class="st10" d="M593.25,373.88c-1.62,1.57-2.43,4.27-2.43,8.1c0,3.06,0.66,5.92,1.96,8.57c1.3,2.65,3.12,3.97,5.44,3.97
	c1.82,0,3.22-0.88,4.21-2.65c0.98-1.77,1.48-4.1,1.48-6.97c0-2.98-0.63-5.78-1.88-8.41c-1.25-2.63-3.06-3.95-5.43-3.95
	C595.3,372.53,594.19,372.98,593.25,373.88 M589.32,374.59c2.06-2.36,4.71-3.54,7.96-3.54c3.23,0,5.91,1.11,8.02,3.35
	c2.12,2.23,3.18,5.2,3.18,8.9c0,3.42-1.03,6.39-3.08,8.91c-2.05,2.52-4.71,3.79-7.97,3.79c-3.13,0-5.78-1.21-7.95-3.63
	c-2.17-2.42-3.26-5.46-3.26-9.12C586.22,379.84,587.26,376.95,589.32,374.59"/>
<path class="st10" d="M609.02,394.32c1.5-0.13,2.49-0.41,2.98-0.83c0.49-0.42,0.73-1.31,0.73-2.68v-11.6c0-1.68-0.15-2.88-0.45-3.6
	c-0.3-0.72-0.84-1.08-1.64-1.08c-0.16,0-0.38,0.02-0.65,0.06c-0.26,0.04-0.55,0.1-0.84,0.16v-0.87c0.94-0.34,1.89-0.69,2.87-1.04
	c0.98-0.36,1.66-0.61,2.04-0.76c0.82-0.32,1.67-0.69,2.53-1.09c0.12,0,0.18,0.04,0.21,0.14c0.02,0.09,0.04,0.28,0.04,0.57v4.23
	c1.04-1.52,2.04-2.72,3.01-3.58c0.96-0.86,1.97-1.29,3.01-1.29c0.83,0,1.51,0.26,2.03,0.79c0.52,0.53,0.78,1.18,0.78,1.97
	c0,0.7-0.2,1.3-0.6,1.78c-0.4,0.48-0.9,0.72-1.51,0.72c-0.62,0-1.24-0.3-1.87-0.9c-0.62-0.6-1.11-0.9-1.47-0.9
	c-0.57,0-1.26,0.48-2.09,1.45c-0.82,0.97-1.24,1.96-1.24,2.98v11.53c0,1.46,0.32,2.47,0.98,3.05c0.66,0.57,1.75,0.84,3.27,0.8v0.88
	h-12.14V394.32"/>
<path class="st10" d="M625.09,394.46c1.52-0.16,2.55-0.47,3.1-0.97c0.54-0.49,0.81-1.45,0.81-2.88v-24.96c0-1.12-0.09-1.9-0.27-2.33
	c-0.33-0.72-1-1.08-2-1.08c-0.23,0-0.48,0.02-0.75,0.08c-0.27,0.05-0.61,0.13-1.02,0.23v-0.88c2.21-0.63,4.87-1.46,7.98-2.5
	c0.11,0,0.18,0.05,0.21,0.15c0.02,0.1,0.04,0.33,0.04,0.67v30.76c0,1.48,0.25,2.43,0.74,2.87c0.49,0.43,1.5,0.71,3.04,0.83v0.74
	h-11.87V394.46"/>
<path class="st10" d="M651.51,391.66c0.78-0.78,1.17-1.52,1.17-2.22V378.5c0-2.21-0.57-3.77-1.69-4.68
	c-1.13-0.91-2.23-1.36-3.29-1.36c-2.05,0-3.64,0.95-4.78,2.84c-1.14,1.9-1.7,4.23-1.7,7c0,2.73,0.6,5.17,1.81,7.32
	c1.21,2.14,3.01,3.21,5.42,3.21C649.71,392.83,650.74,392.44,651.51,391.66 M650.81,371.81c0.65,0.36,1.27,0.86,1.88,1.5v-8.19
	c0-1.02-0.11-1.72-0.33-2.11c-0.23-0.39-0.75-0.58-1.6-0.58c-0.2,0-0.37,0.01-0.52,0.03c-0.15,0.02-0.48,0.05-0.99,0.1v-0.88
	l2.01-0.54c0.74-0.2,1.48-0.42,2.22-0.63c0.73-0.22,1.38-0.44,1.94-0.64c0.26-0.08,0.7-0.25,1.3-0.48l0.15,0.05l-0.06,2.69
	c-0.02,0.97-0.04,1.98-0.06,3.01c-0.02,1.03-0.03,2.06-0.03,3.07l-0.06,20.93c0,1.1,0.13,1.87,0.39,2.32
	c0.26,0.44,0.96,0.66,2.09,0.66c0.18,0,0.36,0,0.54-0.01c0.18-0.01,0.36-0.03,0.54-0.06v0.88c-0.09,0.03-1.28,0.45-3.54,1.27
	l-3.84,1.49l-0.17-0.24v-3.21c-0.91,1.06-1.7,1.82-2.37,2.27c-1.19,0.78-2.56,1.17-4.12,1.17c-2.76,0-5-1.12-6.72-3.37
	c-1.71-2.25-2.57-4.84-2.57-7.8c0-3.7,1.03-6.88,3.09-9.54c2.05-2.66,4.57-3.98,7.55-3.98
	C648.72,370.98,649.81,371.26,650.81,371.81"/>
<path class="st10" d="M663.74,392.79c0.39,0,0.75-0.03,0.75-0.5c0-0.38-0.34-0.45-0.67-0.45h-0.63v0.95H663.74z M663.18,394.51
	h-0.47v-3.07h1.17c0.72,0,1.08,0.26,1.08,0.87c0,0.55-0.35,0.79-0.8,0.84l0.88,1.35h-0.52l-0.81-1.33h-0.53V394.51z M663.74,395.2
	c1.21,0,2.16-0.95,2.16-2.23c0-1.26-0.95-2.21-2.16-2.21c-1.22,0-2.17,0.95-2.17,2.21C661.57,394.25,662.53,395.2,663.74,395.2
	 M661.04,392.97c0-1.52,1.24-2.65,2.7-2.65c1.45,0,2.7,1.13,2.7,2.65c0,1.54-1.24,2.67-2.7,2.67
	C662.28,395.64,661.04,394.51,661.04,392.97"/>
<path class="st10" d="M399.13,375.23c-0.32,4.83-0.38,10.2-0.35,13.59c-5.25-1.57-10.8-4.53-14.46-9.4
	c-0.86-1.36,2.35-2.18,3.92-2.62C391.7,375.83,395.38,375.4,399.13,375.23 M543.47,379.06c-0.61,4.09-5.65,7.56-8.19,8.28
	c-0.85,0.24-1.23,0.24-2.18,0.26c1.44-3.34,5.31-9.06,9.41-12.63C543.19,374.29,543.64,377.67,543.47,379.06 M339.37,374.18
	c-1.04,1.83-2,3.75-2.79,5.75c-0.16,0.29-0.35,0.61,0.09,0.61c1.6,0.12,2.79,0.09,3.92-0.52
	C340.33,378.01,340.24,375.92,339.37,374.18 M376.39,370c0.35,0.7-0.61,1.13-1.05,1.4c-0.92,0.5-1.92,0.61-2.87,0.43
	c0-0.52,0.32-1.24,0.87-1.66C374.13,369.57,375.61,368.95,376.39,370 M448.34,369.04c-0.97-0.09-1.29,1.38-1.48,2.09
	c-0.78,5.22-1.1,11.06-0.96,16.73c0.06,2.11-0.26,4.96,2.35,5.49c1.04,0.26,2.98,0,3.13-0.69c0.53-6.62-0.17-14.03-0.69-20.82
	C450.64,371.13,449.74,369.39,448.34,369.04 M519.42,368.78c-3.46-0.48-10.8,0.96-15.94,1.74c-0.69,0.09-0.52,0.7-0.34,1.22
	c0.44,2.09,2.7,1.75,4.18,2.53c-0.61,1.4-0.96,2.87-1.83,4.18c-0.78,0.26-2.09,0.09-2.18,1.31c-0.08,0.74,0.53,1.23,0.46,2.21
	c-0.81,2.07-2.22,4.25-1.68,6.94c0.65,2.37,1.8,4.93,3.48,5.31c5.41,1.05,9.84-2,13.94-5.05c0.71-0.72-0.65-2.9-1.13-2.96
	c-3.65-0.43-7.05,1.13-10.72,1.05c0.35-1.74,0.79-3.23,1.67-4.71c2.99-0.44,7.43,0.19,9.22-1.21c0.52-0.61,0.3-2.51-0.17-2.79
	c-2.26-0.78-5.23-0.48-7.51-0.36c0.37-1.17,0.75-2.48,1.15-3.65c1.92,0.17,3.83,0.05,5.57-0.09c1.87-0.15,4.1,0.18,5.41-1.31
	c0.38-0.75-1.09-2.77-1.92-3.4C520.25,369.11,519.89,368.84,519.42,368.78 M475.61,369.13c-7.37-1.25-15.68-0.87-20.99,4.27
	c-0.92,1-0.87,2.88-0.78,4.18c0.24,0.85,1.22,1.75,2.09,2c5.84,1.31,13.33-0.26,18.29,3.66c0.61,0.78,0.05,1.61-0.7,2
	c-4.61,1.92-9.5,3.28-14.91,2.14c-0.73-0.19-1.82-0.96-1.47-1.71c2.18-3.31,5.84-0.09,8.54,0.35c1.35,0.3,4.36-0.08,5.84-1.66
	c0.47-0.88-1.17-1.42-2.26-1.74c-3.83-1.04-9.23-2.26-12.81,0.17c-1.01,0.69-1.83,2.79-1.13,4.45c2.96,4.79,8.64,6.41,13.94,5.57
	c3.6-0.57,7.93-1.83,8.8-5.92c0.41-2.59,0.26-5.4-1.92-7.23c-5.05-3.39-12.28-1.57-17.86-3.83c-0.18-0.26-0.07-0.35,0.26-0.52
	c5.92-1.83,12.89-1.13,18.99-2.61c0.88-0.26,1.7-1.68,1.3-2.35C477.96,369.48,476.83,369.34,475.61,369.13 M529.88,369.48
	c-4.53,5.4-9.32,12.54-5.58,19.6c-2.43,6.45-4.53,13.07-4.96,20.3c0.09,1.83,1.57,3.4,3.14,4.35c0.52,0.26,1.77,0.96,1.92,0.35
	c1.22-6.97,2.96-13.67,5.4-20.21c2.3,0.29,3.71,0.24,6.79-1.14c5.23-2.52,10.19-8.01,10.46-14.02c0.07-3.23-1.13-6.27-3.92-8.1
	c-0.91-0.57-1.83-0.3-2.7,0.08c-5.41,3.14-11.93,10.4-13.42,13.58c-0.25-6.17,4.96-10.09,5.4-15.75
	C532.41,367.1,530.51,368.63,529.88,369.48 M359.23,366.34c-1.05,0.53-1.8,1.85-1.75,3.23c0.35,3.83,4.47,5.49,7.41,6.71
	c-0.52,1.65-1.16,3.34-1.48,5.05c-1.02,5.43-2.18,13.07,1.57,17.68c0.95,1.09,2.18,1.74,3.57,1.4c0.48-0.15,0.86-0.36,0.87-0.88
	c-0.52-7.14-0.69-15.24,1.31-21.95c0,0,2.01,0.25,4.18-0.18c2.18-0.42,3.57-1.74,4.35-3.48c-0.09-2.44-0.43-5.4-2.96-6.54
	c-3.66-1.22-6.71,1.57-8.89,4.18c-2.79-0.61-5.58-1.31-7.66-3.49C359.41,367.56,359.76,366.78,359.23,366.34 M353.66,365.91
	c-2.7,1.57-3.61,4.46-4.35,7.06c-1.51,5.25-3.4,11.24-1.31,16.9c0.61,1.66,2.35,2.7,4.09,2.96c4.01-0.26,8.27-2.87,9.49-6.96
	c0.18-0.87,0.32-2.58-0.52-2.61c-2.53,0.17-4.79,1.65-7.23,2.44c-0.59,0.1-1.57,0.64-1.74-0.17c-0.18-4.53,1.25-8.7,2.35-12.89
	c0.49-1.86,1.22-3.92,0.44-5.92C354.71,366.23,354.35,365.55,353.66,365.91 M492.86,364.95c-0.94-0.13-0.84,1.17-0.61,1.92
	c1.14,4.79,2.88,9.41,3.31,14.46c0.09,1.05,0.44,2.44-0.26,3.31c-3.75-4.62-5.92-10.1-10.45-14.11c-0.72-0.59-1.59,0.01-2,0.79
	c-2.09,4.27-2.9,8.97-3.23,13.94c-0.17,2.65-0.69,6.18,2.09,7.58c0.79,0.26,1.87,0.14,2.18-0.61c1.22-4.01,1.06-8.67,1.22-13.16
	c0-0.42,0.27-1.23,0.52-0.87c1.88,3.61,3.77,6.84,5.84,10.19c1.04,1.7,1.97,3.33,3.92,3.22c1.91-0.26,3.48-1.74,4.35-3.31
	c2.18-6.27,0.78-13.59-2.35-18.81C496.25,367.73,494.94,365.47,492.86,364.95 M303.74,362.42c-0.37-0.49-0.75-0.54-1.13-0.17
	c-2.87,3.4-3.05,8.19-3.83,12.54c-0.09,2.53-0.35,5.49,0.17,7.84c3.75-4.27,5.51-9.16,5.83-14.98
	C304.9,365.73,304.7,363.9,303.74,362.42 M460.8,353.45c0.58,1.52-1.39,3.91-3.27,5.03c-2.87,1.57-6.04,2.78-9.7,2.34
	c0.47-1.34,1.39-2.42,2.82-3.81c2.55-2.48,6.01-5.58,9.28-4.51C460.33,352.62,460.55,352.79,460.8,353.45 M449.82,351.88
	c-2.45,1.83-4.52,4.11-6.19,6.62c-0.87-1.57,0.52-3.14,1.57-4.44C446.4,352.89,448.08,351.79,449.82,351.88 M452.96,346.83
	c-5.31,0.96-11.15,4.18-12.89,9.67c-0.43,2.18,0.09,4.19,1.66,5.67c-0.18,1.35-0.35,3.22,1.13,4.18c1.66,0.87,2.02-1.09,2.88-1.83
	c4.88,1.92,9.58-0.35,13.24-3.22c2.87-2.44,6.36-5.4,4.96-9.41c-0.78-1.57-2.44-2.53-4.09-2.53
	C458.19,347.18,455.57,346.48,452.96,346.83 M425.87,353.97c-14.14-8.89-32.4-15.15-50.17-10.02c-2.27,0.78-3.31,3.14-3.66,5.23
	c1.13,1.39,2.88,1.13,4.7,1.13c0.43-0.26,1.22-0.26,1.31-0.87c-0.61-1.3-2.35-0.87-3.31-1.56c0.52-0.53,1.3-0.35,1.92-0.7
	c17.25-2.53,34.23,2.81,47.73,12.54c7.14,5.15,13.94,12.8,11.59,22.04c-3.08,8.92-15.15,10.29-24.56,10.19
	c-2.09-0.02-3.89-0.35-5.75-1.05c0.06-5.56-0.04-12.48-0.14-16.03c3.88-0.23,11.38,0.96,16.34,3.13c0.96,0.63-1.83,2.53-2.88,3.48
	c-0.58,0.68,1.54,1.34,2.96,1.22c2.18-0.35,4.01-2.09,4.88-4.09c0.61-1.92-0.31-3.41-1.48-4.7c-5.32-4.54-12.62-4.51-19.76-4.68
	c-0.08-2.52-0.13-6.27-0.61-8.52c-0.48-2.26-1.58-3.26-3.23-3.61c-1.31,1.48-1.51,3.41-1.74,5.4c-0.28,2.44-0.53,5.09-0.78,7.32
	c0,0-3.89,0.76-6.19,1.3c-2.3,0.54-11.31,3.43-10.54,8.02c1.03,4.07,7.49,8.97,11.93,11.84c1.45,0.94,2.92,1.75,4.53,2.53
	c0.19,2.12,0.52,4.18,1.92,5.84c0.45,0.41,2.03,0.25,3.22,0c1.48-0.61,1.52-2.2,1.65-3.4c1.56,0.27,3.41,0.71,6.11,1.05
	c10.8,1.35,24.03-1.74,29.95-12.55c4.97-10.36-3.66-20.42-10.12-26.01C430.78,357.66,427.57,355.04,425.87,353.97 M325.7,351.18
	c4.19,8.46,4.79,20.39,1.31,29.36c0.93,0.23,1.69,0.39,2.7,0.26c2.35-4.97,4.88-9.93,8.8-14.29c0-0.61,0.17-1.39,0.87-1.56
	c0.69-0.18,1.73-0.3,2.09,0.44c3.57,8.45,4.53,18.03,4.45,27.61c-0.01,0.46-0.17,0.94-0.61,0.87c-1.74-0.26-3.22-2.09-3.83-3.66
	c0,0-0.52-3.31-0.36-4.01c-0.77,0.39-6.96,0-6.96,0c-1.31,2.52-2,5.32-2.87,8.01c-0.29,0.76-1.57,0.7-2.44,0.52
	c-2.09-0.7-2-3.05-2.27-4.88c0.35-2,1.31-3.66,1.83-5.49c-0.07-0.53-1.19-2.44-1.66-2.78c-1.74,3.3-3.74,6.7-6.79,9.58
	c-4.97,4.18-10.7,7.84-17.51,6.1c-3.14-0.87-6.27-3.48-7.75-6.53c-0.89,0.43-2,0.78-3.05,0.96c-4.21,0.89-8.71-0.09-11.5-3.74
	c-5.14-7.23-2.44-17.95,0.44-25.44c2.96-7.06,8.27-14.28,15.59-17.59c0.73-0.29,2.14-0.24,1.83,0.61c-0.96,2.61-3.83,4.18-5.4,6.53
	c-6.53,8.71-10.02,19.08-8.97,30.58c0.35,2.35,1.66,4.96,4,5.84c1.92,0.61,4.18,0.34,5.66-0.96c-1.65-7.49-3.23-17.94,2.96-23.96
	c2.44-2.44,5.22-4.18,8.53-4.44c1.22,0,2.56,0.37,3.49,1.31c3.31,4.53,3.05,11.76,0.52,16.55c-1.92,3.83-5.31,7.32-8.8,10.37
	c0.26,1.48,1.83,3.05,3.22,3.66c4.27,1.57,8.28-0.78,11.32-3.66c5.83-6.36,7.94-14.3,8.45-22.74c-0.09-9.4-2.79-18.38-10.02-24.73
	c-0.35-0.14-0.07-0.96,0.44-0.87C318.81,340.47,323.27,346.29,325.7,351.18"/>
<rect x="493.75" y="270.5" class="st11" width="13.5" height="7"/>
<text transform="matrix(1 0 0 1 493.75 274.7959)" class="st12 st13">unc</text>
</svg>
