<svg id="Layer_1" data-name="Layer 1" xmlns="http://www.w3.org/2000/svg" viewBox="0 0 192.76 192.76"><defs><style>.cls-1{fill:#fff;}.cls-1,.cls-2,.cls-3,.cls-4,.cls-5,.cls-6,.cls-7,.cls-8{fill-rule:evenodd;}.cls-2{fill:#939598;}.cls-3{fill:#564b9f;}.cls-4{fill:#cf1f5d;}.cls-5{fill:#febe10;}.cls-6{fill:#00858a;}.cls-7{fill:#231f20;}.cls-8{fill:#f04923;}</style></defs><title>Epcot</title><polygon class="cls-1" points="0 0 192.76 0 192.76 192.76 0 192.76 0 0 0 0"/><path class="cls-2" d="M223.92,416.41c5-.08,6.39-2,6.39-6.35V371.53c0-4.42-1.38-6.31-6.39-6.38v-2.34c2.6.07,6.39.22,10.32.22,11.84,0,21.31-.15,28.51-.22l.3,13.21H260.6c-1.27-7.57-4.57-10.24-13.85-10.24H240v22.71h6c7,0,8-2.6,8.54-7.53h2.63c-.07,3.08-.15,6-.15,8.5,0,3.67.08,6.68.15,9.83h-2.63c0-6.23-1.93-7.79-8.65-7.79H240v18.71c0,3.6,1.49,5.56,8.73,5.56,7.9,0,13.36-1.48,15.21-11.39h2.64a140.33,140.33,0,0,0-1.15,14.4c-7.5-.07-40-.07-41.54,0v-2.37Z" transform="translate(-209 -300)"/><path class="cls-2" d="M264.64,387.49a67.29,67.29,0,0,0,13.51-4.64v4a23,23,0,0,1,11.84-4c6.39,0,14.89,4.08,14.89,17,0,12.36-8.5,19.53-19.38,19.53a32,32,0,0,1-7.35-1v10.17c0,2.49,1.41,3.67,3.79,3.67H283v2.38c-2.45-.08-6.38-.26-9-.26s-6.56.18-9,.26v-2.38h.59c2.41,0,3.79-1.18,3.79-3.67V392.61c0-2.15-.52-3.08-2.53-3.08a6.85,6.85,0,0,0-2.19.48v-2.52Zm13.51,26.8a16.25,16.25,0,0,0,8.5,2.67c5.27,0,9.43-4.23,9.43-12.17,0-10.84-5.2-17.71-11.36-17.71a11.35,11.35,0,0,0-6.57,2.12v25.09Z" transform="translate(-209 -300)"/><path class="cls-2" d="M368.5,386.71h-6.28v-2.34c3.94-2.37,11.66-8.5,15.07-12.84v11.58H387.8l-1.23,3.6h-9.28v22.57c0,2.37,1.08,4.34,3.79,4.34,1.71,0,3.45-1.11,5.08-2.67l1.19,1.93-5.57,4.53a7,7,0,0,1-4.49,1.37c-4,0-8.79-2.41-8.79-10.35V386.71Z" transform="translate(-209 -300)"/><path class="cls-2" d="M352.76,419.08a20.64,20.64,0,0,0,9.05-27.47,19.83,19.83,0,0,0-27-9.09,20.63,20.63,0,0,0-9,27.46,19.91,19.91,0,0,0,27,9.1Z" transform="translate(-209 -300)"/><path class="cls-2" d="M332.31,384a21.15,21.15,0,0,0-8.47,14l6.72-3.49s-.22-6,1.75-10.47Z" transform="translate(-209 -300)"/><path class="cls-2" d="M330.78,396.62l-7.12,3.49s-.22,5.09,1.74,8.91l7.76-3.9s-1.74-2.67-2.38-8.5Z" transform="translate(-209 -300)"/><path class="cls-2" d="M333.87,406.87l-7.65,3.89a19.67,19.67,0,0,0,5.72,6.57l7.23-3.75a23.92,23.92,0,0,1-5.3-6.71Z" transform="translate(-209 -300)"/><path class="cls-2" d="M340.7,415l-6.91,3.64a20.32,20.32,0,0,0,16.59,1.48s-7.72-2.9-9.68-5.12Z" transform="translate(-209 -300)"/><path class="cls-2" d="M347.49,411.54l-4.86,2.53s4.26,3.23,8.12,4.19l-3.26-6.72Z" transform="translate(-209 -300)"/><path class="cls-2" d="M354.39,408.05l-5.23,2.64,3.26,6.72s2.19-5.94,2-9.36Z" transform="translate(-209 -300)"/><path class="cls-2" d="M342.85,402.23,335.61,406a19.42,19.42,0,0,0,5.38,6.75l5.64-2.82-3.78-7.68Z" transform="translate(-209 -300)"/><path class="cls-2" d="M344.59,401.41,348.3,409l6-3.08s-.23-5.57-2-8.46l-7.69,3.93Z" transform="translate(-209 -300)"/><path class="cls-2" d="M356.21,407.09a31.38,31.38,0,0,1-2.15,11.28s8.05-4.15,9.69-15l-7.54,3.75Z" transform="translate(-209 -300)"/><path class="cls-2" d="M354,396.62a26.2,26.2,0,0,1,2.12,8.39l7.75-3.9a18.8,18.8,0,0,0-1.7-8.68L354,396.62Z" transform="translate(-209 -300)"/><path class="cls-2" d="M355.47,384l-7.54,3.79a25.37,25.37,0,0,1,5.13,7.08l8.31-4.15a18.07,18.07,0,0,0-5.9-6.72Z" transform="translate(-209 -300)"/><path class="cls-2" d="M346.41,386.49l7.2-3.68a19.16,19.16,0,0,0-17-1.15,21.77,21.77,0,0,1,9.76,4.83Z" transform="translate(-209 -300)"/><path class="cls-2" d="M344.59,387.45l-5.53,2.79-3.26-6.83s5.27.93,8.79,4Z" transform="translate(-209 -300)"/><path class="cls-2" d="M334.09,384.26l3.3,6.79-4.93,2.49s0-5.57,1.63-9.28Z" transform="translate(-209 -300)"/><path class="cls-2" d="M346.11,388.75l-6.19,3.19,3.86,7.76,7.61-3.93a23.34,23.34,0,0,0-5.28-7Z" transform="translate(-209 -300)"/><path class="cls-2" d="M338.25,392.76l-5.65,2.86a24.54,24.54,0,0,0,2.19,8.57l7.24-3.6-3.78-7.83Z" transform="translate(-209 -300)"/><path class="cls-2" d="M387.91,417a1.51,1.51,0,0,1,.41,1,1.36,1.36,0,0,1-.41,1,1.22,1.22,0,0,1-1,.41,1.24,1.24,0,0,1-1-.41,1.36,1.36,0,0,1-.41-1,1.51,1.51,0,0,1,.41-1,1.45,1.45,0,0,1,1-.41,1.36,1.36,0,0,1,1,.41Zm.15-.15a1.43,1.43,0,0,0-1.12-.48,1.57,1.57,0,0,0-1.15.48,1.67,1.67,0,0,0-.48,1.15,1.63,1.63,0,0,0,.48,1.15,1.48,1.48,0,0,0,1.15.48,1.4,1.4,0,0,0,1.12-.48,1.48,1.48,0,0,0,.48-1.15,1.51,1.51,0,0,0-.48-1.15Zm-.89,1.08a.81.81,0,0,1-.3,0h-.26v-.66h.26a.87.87,0,0,1,.37.07.3.3,0,0,1,.11.26.3.3,0,0,1-.18.3Zm-.89,1h.33v-.7h.22a.74.74,0,0,1,.37.07c.08,0,.15.19.15.41v.22h.3v-.11s0-.07,0-.15v-.11a.37.37,0,0,0-.37-.44,1.62,1.62,0,0,0,.26-.12.35.35,0,0,0,.15-.33.47.47,0,0,0-.26-.48,1.54,1.54,0,0,0-.48,0h-.63v1.78Z" transform="translate(-209 -300)"/><path class="cls-2" d="M357.84,381.11l-2.15-.26s.82-13.44-8.31-14.33c0,0-9.8-1.49-22.27,18,0,0-13.85,23.2-9.17,40.65,0,0,3.52,13.43,21.79-2.3l1.7,1.26s-11.54,16.74-24.53,13.4c0,0-14.74-1.82-7.54-33.78,0,0,5.39-26.32,25.1-41.27,0,0,13.88-12.22,22.75-.89,0,0,5.45,6.27,2.63,19.56Z" transform="translate(-209 -300)"/><path class="cls-3" d="M222.22,414.48c5-.08,6.42-2,6.42-6.35V369.6c0-4.42-1.41-6.31-6.42-6.38v-2.38c2.63.11,6.42.26,10.35.26,11.81,0,21.31-.15,28.47-.26l.3,13.21h-2.45c-1.23-7.53-4.57-10.2-13.81-10.2h-6.72v22.71h5.94c7,0,8-2.6,8.58-7.53h2.59c-.07,3-.14,6-.14,8.5,0,3.67.07,6.68.14,9.8h-2.59c0-6.2-1.93-7.76-8.65-7.76h-5.87v18.71c0,3.6,1.45,5.56,8.73,5.56,7.86,0,13.36-1.48,15.18-11.39h2.63c-.44,3.79-1.15,10.39-1.15,14.4-7.5-.07-40-.07-41.53,0v-2.37Z" transform="translate(-209 -300)"/><path class="cls-4" d="M263,385.56a68.14,68.14,0,0,0,13.51-4.64v4a22.77,22.77,0,0,1,11.81-4c6.38,0,14.88,4.08,14.88,17,0,12.36-8.5,19.49-19.38,19.49a31.65,31.65,0,0,1-7.31-1V426.5c0,2.53,1.38,3.71,3.75,3.71h1.11v2.34c-2.48-.07-6.42-.22-9-.22s-6.57.15-9,.22v-2.34h.63c2.37,0,3.75-1.18,3.75-3.71V390.65c0-2.12-.52-3-2.53-3a7.09,7.09,0,0,0-2.15.45v-2.49Zm13.51,26.8A16,16,0,0,0,285,415c5.27,0,9.42-4.23,9.42-12.17,0-10.88-5.16-17.71-11.36-17.71a11.16,11.16,0,0,0-6.53,2.12v25.09Z" transform="translate(-209 -300)"/><path class="cls-5" d="M366.79,384.78h-6.24v-2.37c3.94-2.34,11.66-8.47,15-12.81v11.54h10.5l-1.22,3.64h-9.28v22.57c0,2.34,1.07,4.3,3.78,4.3,1.71,0,3.49-1.07,5.09-2.67l1.18,2-5.56,4.49a6.84,6.84,0,0,1-4.49,1.41c-4,0-8.8-2.41-8.8-10.35V384.78Z" transform="translate(-209 -300)"/><path class="cls-1" d="M351.05,417.11a20.6,20.6,0,0,0,9.06-27.43,19.86,19.86,0,0,0-27-9.13,20.7,20.7,0,0,0-9,27.5,19.9,19.9,0,0,0,27,9.06Z" transform="translate(-209 -300)"/><path class="cls-6" d="M330.6,382.07a21.18,21.18,0,0,0-8.46,14l6.75-3.49s-.26-6,1.71-10.47Z" transform="translate(-209 -300)"/><path class="cls-6" d="M329.08,394.69,322,398.18s-.26,5.09,1.71,8.91l7.75-3.94s-1.7-2.63-2.37-8.46Z" transform="translate(-209 -300)"/><path class="cls-6" d="M332.2,404.9l-7.69,3.93a19.82,19.82,0,0,0,5.72,6.57l7.27-3.75a23,23,0,0,1-5.3-6.75Z" transform="translate(-209 -300)"/><path class="cls-6" d="M339,413l-6.91,3.6a20.31,20.31,0,0,0,16.6,1.52S341,415.22,339,413Z" transform="translate(-209 -300)"/><path class="cls-6" d="M345.78,409.61l-4.86,2.49s4.27,3.27,8.13,4.19l-3.27-6.68Z" transform="translate(-209 -300)"/><path class="cls-6" d="M352.68,406.12l-5.23,2.64,3.27,6.72s2.19-5.94,2-9.36Z" transform="translate(-209 -300)"/><path class="cls-6" d="M341.18,400.3l-7.28,3.75a19.12,19.12,0,0,0,5.38,6.71l5.65-2.82-3.75-7.64Z" transform="translate(-209 -300)"/><path class="cls-6" d="M342.89,399.48l3.71,7.61,6-3.08s-.26-5.57-2-8.5l-7.72,4Z" transform="translate(-209 -300)"/><path class="cls-6" d="M354.5,405.16a30.52,30.52,0,0,1-2.15,11.28s8.09-4.15,9.72-15.07l-7.57,3.79Z" transform="translate(-209 -300)"/><path class="cls-6" d="M352.31,394.69a24.84,24.84,0,0,1,2.12,8.39l7.76-3.9a18.88,18.88,0,0,0-1.71-8.68l-8.17,4.19Z" transform="translate(-209 -300)"/><path class="cls-6" d="M353.76,382.07l-7.53,3.79a26.58,26.58,0,0,1,5.16,7.12l8.27-4.15a18,18,0,0,0-5.9-6.76Z" transform="translate(-209 -300)"/><path class="cls-6" d="M344.7,384.56l7.2-3.68a19.16,19.16,0,0,0-17-1.15,21.29,21.29,0,0,1,9.76,4.83Z" transform="translate(-209 -300)"/><path class="cls-6" d="M342.89,385.49l-5.54,2.78-3.26-6.79s5.27.89,8.8,4Z" transform="translate(-209 -300)"/><path class="cls-6" d="M332.38,382.33l3.3,6.79-4.93,2.49s0-5.57,1.63-9.28Z" transform="translate(-209 -300)"/><path class="cls-6" d="M344.44,386.82,338.21,390l3.86,7.79,7.61-4a23.72,23.72,0,0,0-5.24-7Z" transform="translate(-209 -300)"/><path class="cls-6" d="M336.54,390.83l-5.61,2.86a23.87,23.87,0,0,0,2.16,8.57l7.27-3.63-3.82-7.8Z" transform="translate(-209 -300)"/><path class="cls-7" d="M386.2,415.07a1.23,1.23,0,0,1,.41,1,1.32,1.32,0,0,1-.41,1,1.34,1.34,0,0,1-1,.41,1.53,1.53,0,0,1-1-.41,1.45,1.45,0,0,1-.37-1,1.4,1.4,0,0,1,1.38-1.41,1.2,1.2,0,0,1,1,.41Zm.19-.15a1.57,1.57,0,0,0-1.15-.48,1.54,1.54,0,0,0-1.15.48,1.6,1.6,0,0,0-.45,1.15,1.63,1.63,0,0,0,.45,1.15,1.51,1.51,0,0,0,1.15.48,1.53,1.53,0,0,0,1.15-.48,1.67,1.67,0,0,0,.44-1.15,1.63,1.63,0,0,0-.44-1.15Zm-.93,1.08a2.57,2.57,0,0,1-.3,0h-.26v-.66h.26a.74.74,0,0,1,.37.07.35.35,0,0,1-.07.56Zm-.89,1h.33v-.7h.23a1.17,1.17,0,0,1,.37,0,.48.48,0,0,1,.14.41v.23h0v0h.3l0,0v-.34a.55.55,0,0,0-.11-.3.61.61,0,0,0-.3-.18.5.5,0,0,0,.26-.08c.11-.07.15-.18.15-.37a.41.41,0,0,0-.26-.44,1.35,1.35,0,0,0-.48-.08h-.63V417Z" transform="translate(-209 -300)"/><path class="cls-8" d="M356.17,379.18l-2.19-.26s.82-13.44-8.27-14.37c0,0-9.8-1.45-22.31,18,0,0-13.85,23.23-9.17,40.68,0,0,3.53,13.4,21.79-2.3l1.71,1.26s-11.55,16.7-24.54,13.36c0,0-14.73-1.78-7.53-33.74,0,0,5.38-26.35,25.12-41.27,0,0,6-5.31,12.67-5.68h1.45a11.52,11.52,0,0,1,8.64,4.79s5.42,6.23,2.63,19.56Z" transform="translate(-209 -300)"/></svg>