<svg id="Layer_1" data-name="Layer 1" xmlns="http://www.w3.org/2000/svg" viewBox="0 0 192.76 192.76"><defs><style>.cls-1{fill:#d1d3d4;}.cls-1,.cls-2,.cls-3{fill-rule:evenodd;}.cls-2{fill:#fff;}.cls-3{fill:#4f84be;}</style></defs><title>Magic_Kingdom</title><polygon class="cls-1" points="0 0 192.76 0 192.76 192.76 0 192.76 0 0 0 0"/><path class="cls-2" d="M386.79,433.23a3.88,3.88,0,0,0-2.49-2.69V416.12c0-5.07-4.72-9.65-8.75-10.19a4.31,4.31,0,0,0-2.49.49l-3.38,2a9.91,9.91,0,0,0-4.88-2.48,3.89,3.89,0,0,0-2.58.59l-2.59,1.64A8.77,8.77,0,0,0,356.2,406a3.86,3.86,0,0,0-3.58.59L349,409.21a18.2,18.2,0,0,0-6.37-4.28,4,4,0,0,0-2.29-.1,20.35,20.35,0,0,0-8,4.83v-5.53a10.41,10.41,0,0,0-1.5-5.32c.65-.15,1.25-.3,1.74-.44a12.06,12.06,0,0,0,9.35-9.16,7.27,7.27,0,0,0,3.34,1A4,4,0,0,0,348,389l2.64-2.64a15.1,15.1,0,0,0,9.45,3.58,4,4,0,0,0,3.73-2.14l1.94-3.63,1.49-2.83a3.94,3.94,0,0,0-.15-3.93,3.87,3.87,0,0,0-3.43-1.79c-3.28.05-4.63-1.15-4.83-4.43a7.16,7.16,0,0,1,0-1,10.49,10.49,0,0,1,.09-1.24,3.75,3.75,0,0,0,5.23-1.09l2.48-3.43,1.74-2.44c1.15-1.64.6-3.43-.94-4.78-.45-.39-4.73-4-8.75-5.07a4.46,4.46,0,0,0-2,0c-1.05.25-3.24,1.64-5.47,4.08a8.92,8.92,0,0,0,1.59-5.07c0-3.44-3-3.05-5.12-3.8a10.64,10.64,0,0,1-4.49-3.19l-7.2,5.49a4,4,0,0,0-1.25,4.28,9.28,9.28,0,0,0,1.94,3.28,26.83,26.83,0,0,1-3.58-3.58,3.85,3.85,0,0,0-2.93-1.54,3.79,3.79,0,0,0-3.09,1.29,43.78,43.78,0,0,1-8.45,6.17c-1.74-3.13-4.73-6.07-8.16-6.91-.1,0-.25-.05-.35-.05-2-.35-7.16,1.34-11.19,5.47a22,22,0,0,0-.1-3.41,15.21,15.21,0,0,0-1.76-5.54c-2.13-3.86-6.37-6.27-10.09-7.72-2.38,2-4.69,4.11-7.25,5.88-2.65-3.46-7.49-6.06-8.88-5.5-2.29,1.83-4.53,3.82-7,5.45-1.62-2.26-4.55-4-7-5.38-3.3,2.61-6.54,5.24-9.74,8a4,4,0,0,0-1.3,3.83,3.94,3.94,0,0,0,2.64,3s.8.25.8.84v30c0,.1.05.25.05.35a12,12,0,0,0,4.22,7.81,3.7,3.7,0,0,0-2.48.7l-7.61,5.27a3.42,3.42,0,0,0-.65.79c-1.14-2.83-3.58-6.26-7.91-7.16a3.51,3.51,0,0,0-3.13.75l-4.58,3.83-2.68,2.34a4,4,0,0,0,1.34,6.76c.05,0,.8.25.8.89l.05,29.95v.39a12.42,12.42,0,0,0,8.5,10.25,4.12,4.12,0,0,0,3.63-.7c1.15-.89,3.78-3.08,5.67-4.67a12.84,12.84,0,0,0,6.86,5.22,3.88,3.88,0,0,0,3.59-.65c1.69-1.34,6.76-5.57,7.61-6.41.19-.2.39-.45.59-.65a7.84,7.84,0,0,0,1.4.2,4,4,0,0,0,2.78-1.19l1.79-1.79a8.85,8.85,0,0,0,5.67,2.63,3.94,3.94,0,0,0,2.79-1.14s.94-1,1.89-1.94a9.72,9.72,0,0,0,5.27,3,9.8,9.8,0,0,0,3.83,6.07c4.47,3.23,11.64,3.48,15.12,2.29a12.13,12.13,0,0,0,9.35-9.2c0-.15.05-.25.05-.4a11.56,11.56,0,0,0,3.38,1.49,3.73,3.73,0,0,0,3.08-.5,18.67,18.67,0,0,0,2-1.39,8.23,8.23,0,0,0,4.83,2,4,4,0,0,0,2.78-1.19l2.59-2.64a17.87,17.87,0,0,0,9.05,3.68,3.19,3.19,0,0,0,1.19-.1c1.25-.25,4.23-2,7-5.22,1.84,3.78,5.47,5.47,7.66,5.47a4,4,0,0,0,2.78-1.19l2.09-2.09a9.06,9.06,0,0,0,6.12,3.28,4,4,0,0,0,2.83-1.19l1.89-1.94a9.11,9.11,0,0,0,6,3.13,3.9,3.9,0,0,0,2.79-1.19l4.57-4.63a3.86,3.86,0,0,0,1.15-2.73,6.13,6.13,0,0,0-.1-.95Zm-69.14-27.06a15,15,0,0,0-7.71,5.18,39.26,39.26,0,0,1-5.72-5.37,3.88,3.88,0,0,0-6-.25,43.34,43.34,0,0,1-7.86,5.82c-1.64-3.19-4.83-5.53-7.66-5.92a4,4,0,0,0-2.49.49s-1.59.95-3.23,1.89c-1.57-1.62-2.66-2.54-4.92-2.83a13.25,13.25,0,0,0,.09-1.44,3.88,3.88,0,0,0-1.64-2.94,3.1,3.1,0,0,0-1.64-.75,5.46,5.46,0,0,1-3.5-1.74,4,4,0,0,0-5.05,0L258.12,400a15.26,15.26,0,0,0-1.29-2.34,8.24,8.24,0,0,0,1,.4,3.83,3.83,0,0,0,3.58-.65c1.2-.89,3.88-3.18,5.77-4.77A12.81,12.81,0,0,0,274,398a4,4,0,0,0,3.58-.65c1.14-.94,3.83-3.13,5.72-4.77a12.59,12.59,0,0,0,6.91,5.52,3.88,3.88,0,0,0,3.58-.65c1.69-1.34,6.76-5.57,7.61-6.42a7.38,7.38,0,0,0,.85-1,3.34,3.34,0,0,0,.54.2,4.39,4.39,0,0,0,3.68-.7l1.84-1.34a9,9,0,0,0,5.37,2.29h0a9.39,9.39,0,0,0,3.73,5.62c.4.3.85.54,1.25.79l-2.29,1.74A3.88,3.88,0,0,0,315,401.7c0,.2.05.4.05.59a4.1,4.1,0,0,0,2.53,3.14l0,.05v.69Z" transform="translate(-209 -300)"/><path class="cls-3" d="M347.25,365.24v13.58a3.15,3.15,0,0,0,2.53,2.78c-1.14,1.2-3.43,3.54-4.52,4.63-1.1,0-4.88-1.69-4.88-6.62V364.35a3.56,3.56,0,0,0-1.69-3.68l4.83-3.54c4.27.6,3.73,6,3.73,8.11Z" transform="translate(-209 -300)"/><path class="cls-3" d="M343.42,356.34a5.32,5.32,0,0,1-4.93-3.58l5-4a6.1,6.1,0,0,0,5.42,2.44,5.37,5.37,0,0,1-5.47,5.17Z" transform="translate(-209 -300)"/><path class="cls-3" d="M360.38,386c-8.81-.5-11.54-7.91-11.49-13.83.2-10.84,7.86-16,8.8-16.26,3.28.9,7.21,4.28,7.21,4.28-.1.25-2.63,3.58-3.93,5.42-1.64-1.29-2.83-2.74-4.32-3.43a20.42,20.42,0,0,0-1.69,9.2c.29,4.67,2.83,8.25,8.85,8.06-1,1.94-2.34,4.42-3.43,6.56Z" transform="translate(-209 -300)"/><path class="cls-3" d="M331.48,394.59c-3.23,1.34-14.62.49-14-6.72a9.86,9.86,0,0,1,1.7-4.23c.94.7,4.62,3.09,6.11,4.08-.49,1-1.39,2.39.3,3.19.8.34,5.42.84,6.27-1.3.45-1.59-1.49-3.88-1.34-6.46-2.59,1.69-3.19,2.09-4.83,3.23a8.61,8.61,0,0,1-6.71-7.71V363.8c2.63-1.29,8.5-5,11-7.81,2.29,3,7.26,6.71,7.26,6.71-.05,4.48-.05,13.48-.05,17,.45,2.49,1.64,6,.95,8.56a8.21,8.21,0,0,1-6.67,6.37Zm-1.09-16.67V365.69a13.15,13.15,0,0,1-2-2.74c-.8.6-1.74,1.3-2.54,1.84v11.94a3.21,3.21,0,0,0,2,2.93c1-.74,1.59-1.14,2.49-1.74Z" transform="translate(-209 -300)"/><path class="cls-3" d="M313.87,386.53c-1.84,0-4-1.84-4.77-3.68-1.59,1.29-3.53,2.39-5.07,3.63-1.25-.4-8.76-5.47-6.27-18.6,2-8.71,10.79-11.59,11.79-11.44,3.73.94,6.71,5.82,6.71,8.2v14.83a3.26,3.26,0,0,0,2.59,2.58c-1.69,1.59-5,4.48-5,4.48Zm-5.07-8.95c-.05-2.79-.05-8.61-.05-12.09a5.2,5.2,0,0,0-2.39-3.28c-1.44,1.14-2.43,4.57-2.58,7.66-.1,3.78.25,7.21,2.93,9.05.65-.4,1.44-.85,2.09-1.34Z" transform="translate(-209 -300)"/><path class="cls-3" d="M295,356.64c0,2.53.05,23.57,0,27.85.55,3.28,3.14,3.33,3.63,3.73-.59.65-5.52,4.77-7.26,6.12a8.38,8.38,0,0,1-5.77-6.87s-.05-22.63-.05-28.2c0,0,.1-3.48-2-4.17-1.59,1.09-2.63,1.89-4.77,3.43,0,2.48.05,21.58,0,25.81.55,3.33,3.13,3.33,3.63,3.78-.6.6-5.52,4.72-7.26,6.12a8.38,8.38,0,0,1-5.77-6.92s-.05-24.37-.05-29.94a2.73,2.73,0,0,0-1.59-2.33l-.35.19c-1.29.9-2.59,1.84-4.73,3.39v25.86c.5,3.28,3.14,3.33,3.64,3.73-.65.65-5.52,4.77-7.27,6.12a8.49,8.49,0,0,1-5.81-6.87v-30a4.91,4.91,0,0,0-3.59-4.62c1.5-1.2,5.52-4.83,7.12-6.07,3.68.75,5.22,4.67,5.52,6.37,1.94-1.4,7.76-5.48,9-6.37h.3a8.59,8.59,0,0,1,6.86,6.27c1.89-1.4,7.71-5.48,9-6.42,8,1.49,7.61,10,7.61,10Z" transform="translate(-209 -300)"/><path class="cls-3" d="M256.13,436.46c.55,3.29,3.18,3.53,3.73,3.93-.65.65-5.57,4.78-7.26,6.12-3.48-1.09-5.82-4.18-5.82-6.86,0-2.39-.05-4.68-.05-7.51-.2-3.78-1-6.52-3.68-7.51H243l-2.79,2.73-.09.15v9.25c.54,3.28,3.13,3.33,3.63,3.78-.65.6-5.52,4.73-7.27,6.07a8.35,8.35,0,0,1-5.81-6.86V409.8a4.92,4.92,0,0,0-3.59-4.62c1.5-1.19,5.53-4.87,7.12-6.07,3.68.7,5.27,4.68,5.57,6.37a14.94,14.94,0,0,1,.35,5.42v8s2.63-2.59,5.91-5.72-.24-8.36-.24-8.36l7.6-5.32s6.12,8-.74,15.52l-5.42,5.32s8.95,2.19,8.95,10.19v5.92Z" transform="translate(-209 -300)"/><path class="cls-3" d="M369.63,417.51v13.88a3.28,3.28,0,0,0,2.58,2.79c-1.14,1.14-3.48,3.53-4.57,4.62-1.1,0-4.83-1.69-4.83-6.61v-15a1.49,1.49,0,0,0-.69-1.4l-3.48,2v13.58a3.18,3.18,0,0,0,2.53,2.79c-1.14,1.14-3.43,3.53-4.52,4.62-1.1,0-4.88-1.69-4.88-6.61V416.92a3.59,3.59,0,0,0-1.64-3.68l4.83-3.53a5,5,0,0,1,3.38,3.87l6-3.73a7.21,7.21,0,0,1,4.57,3.59l6.17-3.59c2.14.25,5.32,3.19,5.32,6.27v15.27a3.27,3.27,0,0,0,2.59,2.79c-1.15,1.14-3.48,3.53-4.58,4.62-1.09,0-4.82-1.69-4.82-6.61V417.12c0-.75-.2-.95-.85-1.15l-3.08,1.54Z" transform="translate(-209 -300)"/><path class="cls-3" d="M271.55,409.06c1.49.2,3.38,2.14,4.47,4l6.17-3.58c2.19.29,5.32,3.23,5.32,6.31v15.27a3.34,3.34,0,0,0,2.59,2.79l-4.58,4.57c-1.09,0-4.82-1.64-4.82-6.61V416.77a1,1,0,0,0-.85-1.15l-3.08,1.6v13.87a3.34,3.34,0,0,0,2.59,2.79c-1.15,1.14-3.44,3.48-4.53,4.57-1.09,0-4.87-1.64-4.87-6.61v-15c0-.75-1.3-3.38-3.39-3.73l5-4Z" transform="translate(-209 -300)"/><path class="cls-3" d="M321.53,411.89v-6.76a3.87,3.87,0,0,0-2.68-3.38l5-3.83c2.14.25,4.53,3.13,4.53,6.21v27.26a3.18,3.18,0,0,0,2.53,2.79c-1.09,1.14-3.43,3.53-4.52,4.62a5.75,5.75,0,0,1-4.23-3.43l-.15.05c-.45.4-3.33,2.59-4.53,3.38-2.68-.7-4.32-2.63-5.77-4.72-2.53-4.28-2.48-8.71-2.13-12.24.49-3.88,3.23-10.49,9.3-12,.54.4,1.64,1.3,2.43,1.84l.2.2Zm-3.08,3.19s-2.54,2.78-2.29,9.1c.4,4.57,1.84,6.46,3.58,7.56.5-.35,1.79-1.39,1.79-1.39V417.61s-1.89-1.54-3.08-2.53Z" transform="translate(-209 -300)"/><path class="cls-3" d="M266.57,417.81v13.58a3.18,3.18,0,0,0,2.54,2.79c-1.14,1.14-3.43,3.53-4.52,4.62-1.1,0-4.88-1.69-4.88-6.61V416.92a3.59,3.59,0,0,0-1.64-3.68l4.82-3.53c4.23.59,3.68,6,3.68,8.1Z" transform="translate(-209 -300)"/><path class="cls-3" d="M262.74,408.86a5.36,5.36,0,0,1-4.92-3.53s3.88-3.13,5-4.08a6.2,6.2,0,0,0,5.48,2.49,5.41,5.41,0,0,1-5.53,5.12Z" transform="translate(-209 -300)"/><path class="cls-3" d="M302.58,446.91c-3.23,1.34-14.62.45-14-6.72A9.76,9.76,0,0,1,290.3,436c.94.69,4.67,3.08,6.17,4.07-.5,1-1.45,2.39.24,3.19.8.35,5.43.79,6.27-1.3.5-1.59-1.44-3.88-1.34-6.46-2.54,1.69-3.18,2.09-4.83,3.23a8.56,8.56,0,0,1-6.66-7.71V416.12c2.59-1.29,8.5-5,10.94-7.81,2.29,3,7.26,6.72,7.26,6.72-.05,4.47-.05,13.48-.05,17,.45,2.48,1.69,6,.95,8.55a8.21,8.21,0,0,1-6.67,6.37Zm-1.09-16.71V418a15,15,0,0,1-2-2.73c-.8.59-1.69,1.29-2.54,1.84v11.93a3.36,3.36,0,0,0,2,2.94l2.49-1.79Z" transform="translate(-209 -300)"/><path class="cls-3" d="M329.69,424.08a17.42,17.42,0,0,1,11.59-15.47,15,15,0,0,1,9.25,14.13c-.35,10.64-8.41,15.71-9.35,16,0,0-12.34-1.14-11.49-14.62Zm9.5-9.35s-3.53,4.38-3.43,8.9c.15,7.11,5.47,9,5.47,9a19.81,19.81,0,0,0,3.08-9.05c.15-2.93-1.29-7.16-5.12-8.85Z" transform="translate(-209 -300)"/><path class="cls-3" d="M382.06,429.75a2.76,2.76,0,0,1,5.52,0,2.76,2.76,0,0,1-5.52,0Zm2.79,2.29a2.29,2.29,0,0,0,0-4.58,2.29,2.29,0,0,0,0,4.58Zm-.6-.7h-.5v-3.18H385c.74,0,1.09.3,1.09.89s-.35.8-.8.9l.9,1.39h-.55L384.8,430h-.55v1.39Zm.6-1.79c.39,0,.74-.05.74-.5s-.35-.49-.69-.49h-.65v1Z" transform="translate(-209 -300)"/></svg>